<svg width="16" height="16" viewBox="0 0 16 16" fill="none" xmlns="http://www.w3.org/2000/svg">
<path d="M2.5 10H4.16663C4.44263 10 4.66663 9.776 4.66663 9.5V7.83337C4.66663 7.55737 4.44263 7.33337 4.16663 7.33337H2.5C2.224 7.33337 2 7.55737 2 7.83337V9.5C2 9.776 2.224 10 2.5 10Z" fill="#222222"/>
<path d="M2.5 14H4.16663C4.44263 14 4.66663 13.776 4.66663 13.5V11.8334C4.66663 11.5574 4.44263 11.3334 4.16663 11.3334H2.5C2.224 11.3334 2 11.5574 2 11.8334V13.5C2 13.776 2.224 14 2.5 14Z" fill="#222222"/>
<path d="M7.16663 10H8.83337C9.10938 10 9.33337 9.776 9.33337 9.5V7.83337C9.33337 7.55737 9.10938 7.33337 8.83337 7.33337H7.16663C6.89062 7.33337 6.66663 7.55737 6.66663 7.83337V9.5C6.66663 9.776 6.89062 10 7.16663 10Z" fill="#222222"/>
<path d="M7.16663 14H8.83337C9.10938 14 9.33337 13.776 9.33337 13.5V11.8334C9.33337 11.5574 9.10938 11.3334 8.83337 11.3334H7.16663C6.89062 11.3334 6.66663 11.5574 6.66663 11.8334V13.5C6.66663 13.776 6.89062 14 7.16663 14Z" fill="#222222"/>
<path d="M11.8334 10H13.5C13.776 10 14 9.776 14 9.5V7.83337C14 7.55737 13.776 7.33337 13.5 7.33337H11.8334C11.5574 7.33337 11.3334 7.55737 11.3334 7.83337V9.5C11.3334 9.776 11.5574 10 11.8334 10Z" fill="#222222"/>
<path d="M14 2H13.3334V0.666626C13.3334 0.298706 13.0347 0 12.6666 0H12C11.632 0 11.3334 0.298706 11.3334 0.666626V2H4.66663V0.666626C4.66663 0.298706 4.36804 0 4 0H3.33337C2.96533 0 2.66663 0.298706 2.66663 0.666626V2H2C0.897339 2 0 2.89734 0 4V14C0 15.1027 0.897339 16 2 16H14C15.1027 16 16 15.1027 16 14V4C16 2.89734 15.1027 2 14 2ZM14.6666 14C14.6666 14.3673 14.3673 14.6666 14 14.6666H2C1.63269 14.6666 1.33337 14.3673 1.33337 14V6.69336H14.6666V14Z" fill="#222222"/>
</svg>
