<svg width="48" height="48" viewBox="0 0 48 48" fill="none" xmlns="http://www.w3.org/2000/svg">
<path d="M46.9359 8.09373L24.5436 0.0936036C24.19 -0.0312012 23.8043 -0.0312012 23.4508 0.0936036L1.06399 8.09373C0.42948 8.32245 0.00653076 8.92449 0.00653076 9.59896C0.00653076 10.2734 0.42948 10.8755 1.06399 11.1042L12.0002 15.0114V19.9995C12.0002 23.11 22.7723 23.1996 24.0004 23.1996C25.2284 23.1996 36.0006 23.11 36.0006 19.9995V15.0114L38.4006 14.1594V15.9995C38.4006 16.8831 39.117 17.5995 40.0006 17.5995H41.6006C42.4843 17.5995 43.2007 16.8831 43.2007 15.9995V13.5994C43.1983 13.229 43.109 12.8642 42.9399 12.5346L46.9399 11.1042C47.5744 10.8755 47.9974 10.2734 47.9974 9.59896C47.9974 8.92449 47.5744 8.32245 46.9399 8.09373H46.9359ZM34.4005 18.2395C31.3533 16.8523 24.9324 16.7995 24.0004 16.7995C23.0683 16.7995 16.6474 16.8523 13.6002 18.2395V11.2698C14.0802 10.6538 17.8531 9.59936 24.0004 9.59936C30.1477 9.59936 33.9205 10.6538 34.4005 11.2698V18.2395ZM24.0004 21.5996C18.0803 21.5996 14.3626 20.6219 13.6674 19.9995C14.3626 19.3771 18.0819 18.3995 24.0004 18.3995C29.9189 18.3995 33.6381 19.3771 34.3333 19.9995C33.6381 20.6219 29.9205 21.5996 24.0004 21.5996ZM38.7758 12.3234L36.0006 13.313V11.1994C36.0006 8.08893 25.2284 7.99933 24.0004 7.99933C22.7723 7.99933 12.0002 8.08893 12.0002 11.1994V13.3122L1.6 9.59936L24.0116 1.59923L40.0006 7.31292V11.3466C39.4948 11.5264 39.0636 11.8702 38.7758 12.3234ZM41.6006 15.9995H40.0006V13.5994C40.0006 13.1576 40.3588 12.7994 40.8006 12.7994C41.2425 12.7994 41.6006 13.1576 41.6006 13.5994V15.9995ZM41.6006 11.3146V7.88493L46.4007 9.59936L41.6006 11.3146Z" fill="white"/>
<path d="M45.6007 24.7996C45.5527 24.7995 45.5048 24.8038 45.4575 24.8124C38.3593 25.916 31.1838 26.4468 24.0004 26.3997C16.817 26.4468 9.64149 25.916 2.54324 24.8124C2.49592 24.8044 2.44804 24.8001 2.40004 24.7996C1.84003 24.7996 0 25.434 0 33.5998C0 41.7655 1.84003 42.3999 2.40004 42.3999C2.44808 42.3989 2.49596 42.3941 2.54324 42.3855C7.99749 41.5216 13.503 41.0197 19.0235 40.8831L17.4619 44.6287C17.222 45.2285 17.3678 45.9138 17.8312 46.3638C18.2946 46.8139 18.9838 46.9397 19.5763 46.6824L20.1883 46.4208L20.4531 47.0296C20.7033 47.6199 21.2832 48.0025 21.9244 48H21.9444C22.5903 47.995 23.1693 47.6007 23.4108 47.0016L24.8004 43.6751L26.1852 46.9888C26.4245 47.5935 27.0061 47.9933 27.6565 48H27.6804C28.3172 48.0026 28.8941 47.6248 29.1461 47.04L29.4133 46.4264L30.0157 46.6848C30.6108 46.9475 31.3057 46.8223 31.7718 46.3686C32.2379 45.9148 32.3816 45.2234 32.1349 44.6215L30.6037 40.9495C35.5811 41.1257 40.543 41.6066 45.4615 42.3895C45.5075 42.3971 45.5541 42.4006 45.6007 42.3999C46.1608 42.3999 48.0008 41.7655 48.0008 33.5998C48.0008 25.434 46.1608 24.7996 45.6007 24.7996ZM26.5604 27.9757C26.8927 29.1973 27.0862 30.4524 27.1372 31.7173C25.3233 30.8739 23.1958 31.0716 21.5683 32.2349C21.5274 30.7983 21.3433 29.3694 21.0187 27.9693C21.9878 27.9895 22.9817 27.9997 24.0004 27.9997C24.8748 27.9997 25.7236 27.9901 26.5604 27.9757ZM24.8004 40.7999C22.5912 40.7999 20.8003 39.009 20.8003 36.7998C20.8003 34.5906 22.5912 32.7998 24.8004 32.7998C27.0096 32.7998 28.8005 34.5906 28.8005 36.7998C28.7978 39.0079 27.0085 40.7972 24.8004 40.7999ZM2.40004 26.7997C3.01302 29.0121 3.28283 31.3055 3.20005 33.5998C3.28283 35.8941 3.01302 38.1875 2.40004 40.3999C1.78706 38.1875 1.51724 35.8941 1.60003 33.5998C1.51724 31.3055 1.78706 29.0121 2.40004 26.7997ZM4.01607 40.5359C4.45367 39.2671 4.80008 37.1438 4.80008 33.5998C4.80008 30.0557 4.45367 27.9325 4.01527 26.6621C9.09902 27.3642 14.2175 27.7869 19.3475 27.9285C19.8274 29.7794 20.0471 31.6882 20.0003 33.5998C20.0003 33.7158 20.0003 33.8262 19.9955 33.9374C19.0355 35.5307 18.9387 37.4993 19.7379 39.1791L19.7027 39.2639C14.454 39.3925 9.21678 39.8177 4.01607 40.5375V40.5359ZM21.926 46.4L21.3419 45.056C21.1663 44.6524 20.6976 44.4665 20.2931 44.6399L18.9467 45.2352L20.8227 40.7375C21.593 41.518 22.5755 42.0549 23.6484 42.2815L21.926 46.4ZM29.3077 44.6399C28.9032 44.4665 28.4345 44.6524 28.2589 45.056L27.6668 46.3864L25.9516 42.2799C27.0253 42.0532 28.0087 41.516 28.7797 40.7351L30.6517 45.2152L29.3077 44.6399ZM45.4407 40.7599C40.3009 39.9688 35.1181 39.488 29.9205 39.3199L29.8637 39.1823C30.8698 37.0622 30.4385 34.5389 28.7853 32.8734C28.7791 31.2142 28.5875 29.561 28.2141 27.9445C33.9828 27.8153 39.7371 27.3124 45.4407 26.4389C45.8119 27.0693 46.4008 29.5629 46.4008 33.5998C46.4008 37.6366 45.8079 40.1295 45.4407 40.7599Z" fill="white"/>
</svg>
