<svg width="14" height="17" viewBox="0 0 14 17" fill="none" xmlns="http://www.w3.org/2000/svg">
<path d="M9.30971 1.09241C9.23634 1.01514 9.13576 0.96875 9.03151 0.96875H2.78992C1.63819 0.96875 0.6875 1.91565 0.6875 3.06726V14.8701C0.6875 16.0219 1.63819 16.9688 2.78992 16.9688H11.2614C12.4131 16.9688 13.3638 16.0219 13.3638 14.8701V5.49818C13.3638 5.39771 13.3174 5.30115 13.2517 5.22767L9.30971 1.09241ZM9.42177 2.33301L12.0614 5.10401H10.3455C9.83534 5.10401 9.42177 4.69434 9.42177 4.18421V2.33301ZM11.2614 16.1958H2.78992C2.06726 16.1958 1.46045 15.5968 1.46045 14.8701V3.06726C1.46045 2.34461 2.06336 1.7417 2.78992 1.7417H8.64882V4.18421C8.64882 5.1233 9.40639 5.87696 10.3455 5.87696H12.5908V14.8701C12.5908 15.5968 11.9879 16.1958 11.2614 16.1958Z" fill="#DB4F4F"/>
<path d="M10.2063 13.5292H3.84497C3.63245 13.5292 3.4585 13.703 3.4585 13.9157C3.4585 14.1282 3.63245 14.3021 3.84497 14.3021H10.2102C10.4227 14.3021 10.5967 14.1282 10.5967 13.9157C10.5967 13.703 10.4227 13.5292 10.2063 13.5292Z" fill="#DB4F4F"/>
<path d="M6.74357 12.1417C6.81706 12.219 6.91752 12.2654 7.02568 12.2654C7.13395 12.2654 7.23442 12.219 7.30778 12.1417L9.57256 9.71082C9.71941 9.55616 9.70781 9.30884 9.55327 9.1659C9.39861 9.01905 9.15129 9.03052 9.00835 9.18519L7.41215 10.8972V6.677C7.41215 6.46436 7.2382 6.29053 7.02568 6.29053C6.81315 6.29053 6.6392 6.46436 6.6392 6.677V10.8972L5.04691 9.18519C4.90006 9.03064 4.65653 9.01905 4.50199 9.1659C4.34745 9.31275 4.33585 9.55628 4.4827 9.71082L6.74357 12.1417Z" fill="#DB4F4F"/>
</svg>
