<svg width="49" height="49" viewBox="0 0 49 49" fill="none" xmlns="http://www.w3.org/2000/svg">
<path d="M45.2586 12.5H37.5547L35.9922 34.375H34.375V28.125H32.5141L31.1914 10.9375H23.4945L22.8727 19.018L22.6938 19.107C21.5703 18.4508 20.3703 17.9578 19.1187 17.6375L18.425 16.4062H12.825L12.1297 17.6375C10.8773 17.9586 9.67812 18.4516 8.55469 19.107L6.63203 18.1461L2.52031 22.257L3.48203 24.1797C2.84219 25.2758 2.35703 26.4445 2.03516 27.6633L0 28.343V34.1562L2.03594 34.8352C2.35703 36.0547 2.84219 37.2234 3.48281 38.3195L2.52109 40.2422L6.63281 44.3539L8.55703 43.3922C9.19922 43.7719 10.3383 44.4273 10.9383 44.7711V48.4375H48.4383V34.375H46.8219L45.2586 12.5ZM43.8039 14.0625L44.0273 17.1875H38.7852L39.0086 14.0625H43.8039ZM38.6734 18.75H44.1391L45.2555 34.375H37.5578L38.6734 18.75ZM10.9375 28.125V39.3656C8.05703 37.7063 6.25 34.6391 6.25 31.25C6.25 26.0805 10.4555 21.875 15.625 21.875C18.2047 21.875 20.6602 22.9484 22.4273 24.8164L22.1734 28.125H10.9375ZM24.5813 17.1875H30.1055L30.9469 28.125H23.7398L24.5813 17.1875ZM29.7453 12.5L29.9859 15.625H24.7016L24.9422 12.5H29.7453ZM9.00469 41.8391L8.63281 41.6063L6.94062 42.4531L4.42188 39.9344L5.26875 38.2414L5.03594 37.8687C4.29531 36.6859 3.7625 35.4031 3.45312 34.0555L3.35469 33.6273L1.5625 33.0305V29.4688L3.35469 28.8711L3.45312 28.443C3.7625 27.0945 4.29531 25.8125 5.03594 24.6297L5.26875 24.2578L4.42188 22.5656L6.94062 20.0477L8.63359 20.8937L9.00625 20.6609C10.1891 19.9195 11.4719 19.3875 12.8195 19.0781L13.1562 19.0008L13.7375 17.9688H17.5125L18.0945 19.0008L18.4312 19.0781C19.7789 19.3875 21.0617 19.9203 22.2445 20.6609L22.6172 20.8937L22.7344 20.8352L22.5812 22.8297C20.6336 21.2219 18.1828 20.3125 15.625 20.3125C9.59375 20.3125 4.6875 25.2188 4.6875 31.25C4.6875 35.5016 7.12578 39.3188 10.9375 41.1273V42.9688C10.1734 42.5281 9.26953 42.0047 9.00469 41.8391ZM20.3125 46.875H12.5V29.6875H32.8125V34.375H23.8953L20.3125 37.9578V46.875ZM28.125 46.875H25V42.1875H28.125V46.875ZM35.9375 46.875H32.8125V42.1875H35.9375V46.875ZM43.75 46.875H40.625V42.1875H43.75V46.875ZM45.3125 46.875V40.625H39.0625V46.875H37.5V40.625H31.25V46.875H29.6875V40.625H23.4375V46.875H21.875V39.0625H46.875V46.875H45.3125ZM46.875 37.5H22.9797L24.5422 35.9375H46.875V37.5Z" fill="white"/>
<path d="M39.0625 6.25H46.0938C46.525 6.25 46.875 6.60078 46.875 7.03125C46.875 7.46172 46.525 7.8125 46.0938 7.8125H44.5312C43.2391 7.8125 42.1875 8.86406 42.1875 10.1562V10.9375H43.75V10.1562C43.75 9.72578 44.1 9.375 44.5312 9.375H46.0938C47.3859 9.375 48.4375 8.32344 48.4375 7.03125C48.4375 5.73906 47.3859 4.6875 46.0938 4.6875H39.0625V6.25Z" fill="white"/>
<path d="M36.7188 9.375H38.2812C38.7125 9.375 39.0625 9.72578 39.0625 10.1562V10.9375H40.625V10.1562C40.625 8.86406 39.5734 7.8125 38.2812 7.8125H36.7188C35.4266 7.8125 34.375 6.76094 34.375 5.46875C34.375 4.17656 35.4266 3.125 36.7188 3.125H42.1875V1.5625H36.7188C34.5648 1.5625 32.8125 3.31484 32.8125 5.46875C32.8125 7.62266 34.5648 9.375 36.7188 9.375Z" fill="white"/>
<path d="M43.75 1.5625H45.3125V3.125H43.75V1.5625Z" fill="white"/>
<path d="M6.25 4.6875H11.7188C12.15 4.6875 12.5 5.03828 12.5 5.46875C12.5 6.76094 13.5516 7.8125 14.8438 7.8125H24.2188C24.65 7.8125 25 8.16328 25 8.59375V9.375H26.5625V8.59375C26.5625 7.30156 25.5109 6.25 24.2188 6.25H14.8438C14.4125 6.25 14.0625 5.89922 14.0625 5.46875C14.0625 4.17656 13.0109 3.125 11.7188 3.125H6.25C5.81875 3.125 5.46875 2.77422 5.46875 2.34375C5.46875 1.91328 5.81875 1.5625 6.25 1.5625H14.8438V0H6.25C4.95781 0 3.90625 1.05156 3.90625 2.34375C3.90625 3.63594 4.95781 4.6875 6.25 4.6875Z" fill="white"/>
<path d="M21.875 4.6875H24.2188C26.3727 4.6875 28.125 6.43984 28.125 8.59375V9.375H29.6875V8.59375C29.6875 5.57812 27.2336 3.125 24.2188 3.125H21.875C21.4438 3.125 21.0938 2.77422 21.0938 2.34375C21.0938 1.91328 21.4438 1.5625 21.875 1.5625H30.4688V0H21.875C20.5828 0 19.5312 1.05156 19.5312 2.34375C19.5312 3.63594 20.5828 4.6875 21.875 4.6875Z" fill="white"/>
<path d="M26.5625 31.25H28.125V32.8125H26.5625V31.25Z" fill="white"/>
<path d="M29.6875 31.25H31.25V32.8125H29.6875V31.25Z" fill="white"/>
<path d="M23.4375 31.25H25V32.8125H23.4375V31.25Z" fill="white"/>
<path d="M20.3125 31.25H21.875V32.8125H20.3125V31.25Z" fill="white"/>
<path d="M14.0625 31.25H15.625V32.8125H14.0625V31.25Z" fill="white"/>
<path d="M17.1875 31.25H18.75V32.8125H17.1875V31.25Z" fill="white"/>
<path d="M17.1875 34.375H18.75V35.9375H17.1875V34.375Z" fill="white"/>
<path d="M14.0625 34.375H15.625V35.9375H14.0625V34.375Z" fill="white"/>
<path d="M17.1875 37.5H18.75V39.0625H17.1875V37.5Z" fill="white"/>
<path d="M14.0625 37.5H15.625V39.0625H14.0625V37.5Z" fill="white"/>
<path d="M14.0625 40.625H15.625V42.1875H14.0625V40.625Z" fill="white"/>
<path d="M17.1875 40.625H18.75V42.1875H17.1875V40.625Z" fill="white"/>
<path d="M17.1875 43.75H18.75V45.3125H17.1875V43.75Z" fill="white"/>
<path d="M14.0625 43.75H15.625V45.3125H14.0625V43.75Z" fill="white"/>
<path d="M26.5625 18.75H28.125V20.3125H26.5625V18.75Z" fill="white"/>
<path d="M26.5625 25H28.125V26.5625H26.5625V25Z" fill="white"/>
<path d="M26.5625 21.875H28.125V23.4375H26.5625V21.875Z" fill="white"/>
<path d="M40.625 20.3125H42.1875V21.875H40.625V20.3125Z" fill="white"/>
<path d="M40.625 26.5625H42.1875V28.125H40.625V26.5625Z" fill="white"/>
<path d="M40.625 23.4375H42.1875V25H40.625V23.4375Z" fill="white"/>
<path d="M40.625 29.6875H42.1875V31.25H40.625V29.6875Z" fill="white"/>
</svg>
