<svg width="124" height="102" viewBox="0 0 124 102" fill="none" xmlns="http://www.w3.org/2000/svg">
<path d="M92.2275 76.9894C74.6988 76.9894 65.7354 66.7545 65.2987 46.5044C65.2987 26.3673 74.167 16.2423 92.0076 15.9036C106.019 15.9036 114.019 22.0267 116.539 34.8197L100.983 35.0573C99.23 31.0525 96.167 28.9372 91.5679 28.9372C83.9058 28.9372 80.0733 34.8345 80.0733 46.5163C80.0733 58.1981 84.1227 64.0955 92.2245 63.9826C95.6173 63.9826 98.5734 62.5357 100.983 59.7549C101.612 59.0796 102.375 58.5426 103.223 58.178C104.071 57.8133 104.986 57.6289 105.909 57.6366H116.857C114.23 69.6482 105.692 77.3252 92.2275 76.9894Z" fill="black"/>
<path d="M25.8919 27.3714V59.9658C25.8919 62.4139 27.315 63.7478 30.1612 63.7478H34.6473V74.987C29.5436 75.4469 24.4072 75.4071 19.3112 74.8681C13.8358 74.3126 11.2094 70.8633 11.3194 64.2975V0H18.8745C22.707 0 25.88 3.56515 25.88 7.45413V27.3596L25.8919 27.3714Z" fill="black"/>
<path d="M88.3801 29.3293C84.0227 30.5177 81.3854 34.3047 80.4684 40.6902H0V29.7868L68.3855 29.4125L88.3801 29.3293Z" fill="#DB4F4F"/>
<path d="M64.0004 40.7021H37.7312V29.7868L63.7746 29.4125C63.7746 29.4125 63.9826 41.3943 64.0004 40.7021Z" fill="url(#paint0_linear)"/>
<path d="M50.5063 0.594177C55.3222 0.594177 57.6366 3.02442 57.5118 7.76904V12.0621H42.9541V0.594177H50.5063ZM50.5063 17.2672C55.2123 17.2672 57.5118 19.5845 57.5118 24.3321V75.6703H42.9541V17.2523L50.5063 17.2672Z" fill="black"/>
<path d="M123.203 36.3705V40.7021H80.4684C81.125 36.1714 82.6342 32.936 85.0318 31.0316C86.0163 30.2386 87.1573 29.6625 88.3801 29.3412L94.6191 29.3085L101.749 29.2758L114.899 29.2104L116.574 29.2936C121.117 29.6561 123.319 32.0358 123.203 36.3705Z" fill="#DB4F4F"/>
<path d="M114.798 29.1956L101.889 29.261L94.8805 29.2937L88.7574 29.3263C87.5155 29.671 95.445 28.2598 100.279 36.4566H116.536C116.536 33.1856 114.798 29.1956 114.798 29.1956Z" fill="url(#paint1_linear)"/>
<path d="M92.0076 15.9095C106.019 15.9095 114.019 22.0326 116.539 34.8256L100.983 35.0573C99.23 31.0525 96.1669 28.9371 91.5679 28.9371C83.9058 28.9282 74.164 16.2452 92.0076 15.9095Z" fill="black"/>
<path d="M12.68 97.24C10.9867 97.24 9.69333 96.74 8.8 95.74C7.90667 94.74 7.46 93.1467 7.46 90.96V83.96H10.42V91.26C10.42 92.54 10.6133 93.4333 11 93.94C11.3867 94.4467 11.9467 94.7 12.68 94.7C13.4133 94.7 13.98 94.4467 14.38 93.94C14.78 93.4333 14.98 92.54 14.98 91.26V83.96H17.82V90.96C17.82 93.1467 17.38 94.74 16.5 95.74C15.6333 96.74 14.36 97.24 12.68 97.24ZM26.0408 97V83.96H28.9808V89.3H29.0608L32.9408 83.96H36.1808L32.2408 89.16L36.9008 97H33.6808L30.5008 91.5L28.9808 93.5V97H26.0408ZM43.5259 97V83.96H48.2259C48.9193 83.96 49.5659 84.0267 50.1659 84.16C50.7793 84.2933 51.3126 84.52 51.7659 84.84C52.2193 85.1467 52.5793 85.56 52.8459 86.08C53.1126 86.6 53.2459 87.2467 53.2459 88.02C53.2459 88.98 53.0326 89.7733 52.6059 90.4C52.1926 91.0133 51.6326 91.4733 50.9259 91.78L53.8859 97H50.5859L48.0859 92.3H46.4659V97H43.5259ZM46.4659 89.96H47.9859C48.7593 89.96 49.3459 89.8 49.7459 89.48C50.1593 89.1467 50.3659 88.66 50.3659 88.02C50.3659 87.38 50.1593 86.9333 49.7459 86.68C49.3459 86.4267 48.7593 86.3 47.9859 86.3H46.4659V89.96ZM63.8953 90.4L63.5753 91.6H66.3553L66.0553 90.4C65.8686 89.7467 65.6886 89.0533 65.5153 88.32C65.342 87.5867 65.1686 86.88 64.9953 86.2H64.9153C64.7553 86.8933 64.5886 87.6067 64.4153 88.34C64.2553 89.06 64.082 89.7467 63.8953 90.4ZM59.1753 97L63.2553 83.96H66.7953L70.8753 97H67.7553L66.9553 93.9H62.9753L62.1753 97H59.1753ZM77.5002 97V83.96H80.4402V97H77.5002ZM88.7158 97V83.96H91.7358L95.1358 90.44L96.4158 93.32H96.4958C96.4291 92.6267 96.3491 91.8533 96.2558 91C96.1758 90.1467 96.1358 89.3333 96.1358 88.56V83.96H98.9358V97H95.9158L92.5158 90.5L91.2358 87.66H91.1558C91.2224 88.38 91.2958 89.1533 91.3758 89.98C91.4691 90.8067 91.5158 91.6067 91.5158 92.38V97H88.7158ZM107.217 97V83.96H115.377V86.44H110.157V89.06H114.597V91.52H110.157V94.52H115.577V97H107.217Z" fill="#DB4F4F"/>
<defs>
<linearGradient id="paint0_linear" x1="37.5886" y1="35.2296" x2="63.5429" y2="35.0751" gradientUnits="userSpaceOnUse">
<stop stop-color="#DB4F4F"/>
<stop offset="0.19" stop-color="#BC2D2D"/>
<stop offset="0.39" stop-color="#9E0C0C"/>
<stop offset="0.51" stop-color="#930000"/>
<stop offset="0.95" stop-color="#D44747"/>
<stop offset="1" stop-color="#DB4F4F"/>
</linearGradient>
<linearGradient id="paint1_linear" x1="94.5181" y1="56.7869" x2="112.228" y2="4.37623" gradientUnits="userSpaceOnUse">
<stop offset="0.27" stop-color="#DB4F4F" stop-opacity="0.4"/>
<stop offset="0.36" stop-color="#C93C3C" stop-opacity="0.55"/>
<stop offset="0.61" stop-color="#A21010" stop-opacity="0.88"/>
<stop offset="0.75" stop-color="#930000"/>
<stop offset="1" stop-color="#DB4F4F" stop-opacity="0.4"/>
</linearGradient>
</defs>
</svg>
