<svg width="19" height="16" viewBox="0 0 19 16" fill="none" xmlns="http://www.w3.org/2000/svg">
<path d="M17.3301 0H1.66992C0.750277 0 0 0.828554 0 1.84615V14.1538C0 15.168 0.746938 16 1.66992 16H17.3301C18.2474 16 19 15.1742 19 14.1538V1.84615C19 0.832 18.2531 0 17.3301 0ZM17.0995 1.23077L9.5354 9.59315L1.9059 1.23077H17.0995ZM1.11328 13.899V2.09514L6.47481 7.97165L1.11328 13.899ZM1.90048 14.7692L7.26539 8.83815L9.14523 10.8985C9.36284 11.1371 9.71401 11.1363 9.93073 10.8967L11.7637 8.87028L17.0995 14.7692H1.90048ZM17.8867 13.899L12.5509 8L17.8867 2.10101V13.899Z" fill="#DB4F4F"/>
</svg>
