<svg width="101" height="80" viewBox="0 0 101 80" fill="none" xmlns="http://www.w3.org/2000/svg">
<g opacity="0.2">
<path d="M-34.1192 85.18C-15.1793 70.8135 18.0544 45.5383 27.8222 37.6574C29.1334 36.5938 30.5398 36.053 31.9999 36.053C33.457 36.053 34.861 36.5887 36.1693 37.6473C45.9454 45.5359 79.1791 70.8135 98.1193 85.18C99.2985 86.0728 99.4783 87.6419 98.5236 88.7334C96.3167 91.2554 93.0262 92.7014 89.4997 92.7014H-25.4999C-29.0262 92.7014 -32.3169 91.2554 -34.5235 88.7331C-35.4782 87.6419 -35.2984 86.0728 -34.1192 85.18Z" fill="white"/>
<path d="M99.3321 77.3949C98.313 77.8198 97.1142 77.6716 96.2662 77.0227C83.8621 67.6053 67.5192 55.1625 55.1938 45.6671C54.5453 45.1691 54.1803 44.4374 54.1944 43.6704C54.2084 42.9058 54.6043 42.1843 55.2725 41.7065C66.7248 33.4911 83.9832 22.1899 96.446 14.158C96.943 13.8362 97.5325 13.6727 98.1249 13.6727C98.5742 13.6727 99.0233 13.7657 99.4362 13.9569C100.397 14.397 101 15.2822 101 16.2479V75.0588C101 76.0621 100.348 76.9749 99.3321 77.3949Z" fill="white"/>
<path d="M-32.446 14.1577C-19.9802 22.1897 -2.71892 33.4906 8.73048 41.7063C9.39864 42.184 9.79458 42.9059 9.8086 43.6702C9.82261 44.4371 9.45767 45.1688 8.80918 45.6669C-3.51646 55.1623 -19.8624 67.605 -32.2662 77.0225C-33.1198 77.6714 -34.3214 77.8145 -35.3321 77.3947C-36.3485 76.9747 -37 76.0619 -37 75.0586V16.2474C-37 15.2818 -36.3963 14.3965 -35.4362 13.9564C-35.0235 13.7652 -34.5742 13.6723 -34.1249 13.6723C-33.5325 13.6723 -32.943 13.8357 -32.446 14.1577Z" fill="white"/>
<path d="M97.4762 7.15171C85.44 14.8643 63.2681 29.2432 50.0331 38.8646C48.955 39.6516 47.3939 39.6265 46.3327 38.8067C43.7358 36.7774 41.5626 35.0672 40.0211 33.8251C35.2874 29.9978 28.7175 29.9978 23.9727 33.8302C22.4369 35.0699 20.264 36.7851 17.6668 38.8069C16.614 39.6318 15.0502 39.6569 13.9691 38.8648C0.778786 29.2763 -21.4181 14.8797 -33.474 7.15195C-34.1451 6.71935 -34.5774 6.05305 -34.6615 5.31627C-34.7429 4.57948 -34.4707 3.84777 -33.9063 3.30459C-31.7301 1.20456 -28.6642 -7.24792e-05 -25.4999 -7.24792e-05H89.5C92.6642 -7.24792e-05 95.7272 1.20456 97.9088 3.30435C98.4702 3.84511 98.7454 4.57682 98.664 5.31361C98.5796 6.05015 98.1473 6.7191 97.4762 7.15171Z" fill="white"/>
</g>
</svg>
