<svg width="17" height="20" viewBox="0 0 17 20" fill="none" xmlns="http://www.w3.org/2000/svg">
<path d="M14.7291 3.47738C13.2023 1.26762 10.7825 0 8.09063 0C5.3988 0 2.97899 1.26762 1.45215 3.47738C-0.0671813 5.67598 -0.418001 8.45945 0.511842 10.9186C0.760553 11.5902 1.1559 12.2427 1.68411 12.8541L7.55825 19.7538C7.6911 19.91 7.88575 20 8.09063 20C8.29552 20 8.49016 19.91 8.62301 19.7538L14.4955 12.8559C15.0261 12.241 15.4209 11.5893 15.6675 10.9231C16.5993 8.45945 16.2484 5.67598 14.7291 3.47738ZM14.358 10.4333C14.1678 10.9473 13.8573 11.4555 13.4356 11.9443C13.4345 11.9454 13.4333 11.9466 13.4324 11.948L8.09063 18.2221L2.74563 11.9441C2.32419 11.4557 2.01368 10.9476 1.82161 10.4287C1.05262 8.39488 1.34446 6.09348 2.60251 4.27273C3.8645 2.44617 5.86497 1.39859 8.09063 1.39859C10.3163 1.39859 12.3165 2.44613 13.5785 4.27273C14.8368 6.09348 15.1289 8.39488 14.358 10.4333Z" fill="#DB4F4F"/>
<path d="M8.09065 4.14917C5.93144 4.14917 4.17456 5.90581 4.17456 8.06526C4.17456 10.2247 5.9312 11.9814 8.09065 11.9814C10.2501 11.9814 12.0067 10.2247 12.0067 8.06526C12.0067 5.90604 10.2499 4.14917 8.09065 4.14917ZM8.09065 10.5827C6.70253 10.5827 5.57315 9.45335 5.57315 8.06522C5.57315 6.6771 6.70253 5.54772 8.09065 5.54772C9.47878 5.54772 10.6082 6.6771 10.6082 8.06522C10.6082 9.45335 9.47878 10.5827 8.09065 10.5827Z" fill="#DB4F4F"/>
</svg>
