<svg width="40" height="48" viewBox="0 0 40 48" fill="none" xmlns="http://www.w3.org/2000/svg">
<path d="M10.6232 10.3715V10.3716C10.6232 11.8359 9.43095 13.0282 7.96662 13.0282C6.50229 13.0282 5.31006 11.8359 5.31006 10.3716C5.31006 8.90725 6.50221 7.71503 7.96662 7.71503C8.1056 7.71503 8.21821 7.82764 8.21821 7.96662C8.21821 8.10556 8.10555 8.21821 7.96662 8.21821C6.77876 8.21821 5.81315 9.18382 5.81315 10.3717C5.81315 11.5595 6.77876 12.5252 7.96662 12.5252C9.15448 12.5252 10.1201 11.5595 10.1201 10.3717C10.1201 10.2327 10.2328 10.1201 10.3717 10.1201C10.5107 10.1201 10.6232 10.2328 10.6232 10.3715Z" fill="white" stroke="white"/>
<path d="M10.6232 19.1898V19.1899C10.6232 20.6542 9.43095 21.8464 7.96662 21.8464C6.50229 21.8464 5.31006 20.6542 5.31006 19.1899C5.31006 17.7256 6.50221 16.5333 7.96662 16.5333C8.1056 16.5333 8.21821 16.6459 8.21821 16.7849C8.21821 16.9239 8.10555 17.0365 7.96662 17.0365C6.77876 17.0365 5.81315 18.0021 5.81315 19.19C5.81315 20.3778 6.77876 21.3434 7.96662 21.3434C9.15448 21.3434 10.1201 20.3778 10.1201 19.19C10.1201 19.051 10.2328 18.9384 10.3717 18.9384C10.5106 18.9384 10.6232 19.0511 10.6232 19.1898Z" fill="white" stroke="white"/>
<path d="M13.5783 20.5418H19.1899C19.3289 20.5418 19.4415 20.6544 19.4415 20.7934C19.4415 20.9323 19.3289 21.045 19.1899 21.045H13.5783C13.4393 21.045 13.3267 20.9324 13.3267 20.7934C13.3267 20.6545 13.4393 20.5418 13.5783 20.5418Z" fill="white" stroke="white"/>
<path d="M13.5783 17.3351H19.1899C19.3289 17.3351 19.4415 17.4477 19.4415 17.5867C19.4415 17.7256 19.3289 17.8383 19.1899 17.8383H13.5783C13.4393 17.8383 13.3267 17.7257 13.3267 17.5867C13.3267 17.4477 13.4393 17.3351 13.5783 17.3351Z" fill="white" stroke="white"/>
<path d="M13.5783 29.3601H17.5866C17.7256 29.3601 17.8382 29.4728 17.8382 29.6117C17.8382 29.7506 17.7256 29.8633 17.5866 29.8633H13.5783C13.4393 29.8633 13.3267 29.7507 13.3267 29.6117C13.3267 29.4728 13.4393 29.3601 13.5783 29.3601Z" fill="white" stroke="white"/>
<path d="M13.5783 26.1534H19.1899C19.3289 26.1534 19.4415 26.2661 19.4415 26.405C19.4415 26.544 19.3289 26.6566 19.1899 26.6566H13.5783C13.4393 26.6566 13.3267 26.544 13.3267 26.405C13.3267 26.2661 13.4393 26.1534 13.5783 26.1534Z" fill="white" stroke="white"/>
<path d="M13.5783 11.7234H26.405C26.5439 11.7234 26.6565 11.836 26.6565 11.975C26.6565 12.1139 26.5439 12.2266 26.4049 12.2266H13.5783C13.4393 12.2266 13.3267 12.114 13.3267 11.975C13.3267 11.836 13.4393 11.7234 13.5783 11.7234Z" fill="white" stroke="white"/>
<path d="M13.5783 8.51666H23.1983C23.3373 8.51666 23.4499 8.62927 23.4499 8.76826C23.4499 8.9072 23.3372 9.01985 23.1983 9.01985H13.5783C13.4393 9.01985 13.3267 8.90724 13.3267 8.76826C13.3267 8.62931 13.4393 8.51666 13.5783 8.51666Z" fill="white" stroke="white"/>
<path d="M10.6232 28.0082V28.0083C10.6232 29.4726 9.43095 30.6649 7.96662 30.6649C6.50229 30.6649 5.31006 29.4726 5.31006 28.0083C5.31006 26.544 6.50221 25.3517 7.96662 25.3517C8.1056 25.3517 8.21821 25.4644 8.21821 25.6033C8.21821 25.7423 8.10555 25.8549 7.96662 25.8549C6.77876 25.8549 5.81315 26.8205 5.81315 28.0084C5.81315 29.1963 6.77876 30.1619 7.96662 30.1619C9.15448 30.1619 10.1201 29.1963 10.1201 28.0084C10.1201 27.8695 10.2328 27.7568 10.3717 27.7568C10.5107 27.7568 10.6232 27.8695 10.6232 28.0082Z" fill="white" stroke="white"/>
<path d="M2.35491 0.5H29.6117C30.6341 0.5 31.4666 1.33252 31.4667 2.35491V27.2068C31.4667 27.3458 31.354 27.4584 31.2151 27.4584C31.0762 27.4584 30.9635 27.3457 30.9635 27.2068V2.35491C30.9635 1.60908 30.3575 1.00309 29.6117 1.00309H2.35491C1.60908 1.00309 1.00309 1.60908 1.00309 2.35491V36.0249C1.00309 36.7708 1.60908 37.3767 2.35491 37.3767H15.9833C16.1223 37.3767 16.2349 37.4894 16.2349 37.6283C16.2349 37.7673 16.1223 37.8799 15.9833 37.8799H2.35491C1.33252 37.8799 0.5 37.0474 0.5 36.025V2.35491C0.5 1.33253 1.3326 0.5 2.35491 0.5Z" fill="white" stroke="white"/>
<path d="M35.0606 31.4237L34.6151 31.7619L34.3288 31.2814C33.9614 30.6649 33.3444 30.2431 32.6493 30.1734C32.076 30.1164 31.5038 30.2792 31.0522 30.622L30.6068 30.9602L30.3204 30.4798C29.953 29.8633 29.336 29.4414 28.6409 29.3718C28.2035 29.3281 27.7668 29.4125 27.3833 29.6076L26.6566 29.9775V29.162V19.5908C26.6566 18.9551 26.3858 18.3448 25.9139 17.9179L25.9139 17.9179C25.4432 17.492 24.8071 17.2829 24.1691 17.3467L35.0606 31.4237ZM35.0606 31.4237C35.5124 31.0807 36.0848 30.918 36.6579 30.9751C37.7705 31.0866 38.6817 32.1082 38.6816 33.3337V33.3338V41.6369C38.6816 44.8696 36.0509 47.5002 32.8183 47.5002H26.0395C23.3042 47.5002 20.9586 45.6425 20.3322 42.9799L19.8462 43.0942L20.3322 42.9798L18.6549 35.8514L18.6549 35.8514C18.3142 34.4037 18.7377 32.915 19.7893 31.8634L19.4358 31.5099L19.7893 31.8634L21.9986 29.6541L22.1451 29.5076M35.0606 31.4237L22.1451 29.5076M22.1451 29.5076V29.3005M22.1451 29.5076V29.3005M22.1451 29.3005V19.7052C22.1451 18.4798 23.0563 17.4582 24.169 17.3467L22.1451 29.3005ZM22.1451 30.2189V31.426V34.0209C22.1451 34.1598 22.2577 34.2725 22.3967 34.2725C22.5357 34.2725 22.6483 34.1598 22.6483 34.0209V19.7051C22.6483 18.7913 23.2947 17.94 24.2192 17.8474L22.1451 30.2189ZM22.1451 30.2189L21.2915 31.0725M22.1451 30.2189L21.2915 31.0725M21.2915 31.0725L20.1451 32.219C19.2194 33.1446 18.8447 34.4615 19.1446 35.7359L20.8219 42.8643C21.3942 45.2964 23.5412 46.9968 26.0396 46.9968H32.8184C35.6058 46.9968 37.9025 44.8591 38.1554 42.1367L21.2915 31.0725ZM35.2509 31.919L35.2509 31.9189C35.6224 31.583 36.1075 31.4252 36.6078 31.4756C36.608 31.4756 36.6082 31.4756 36.6083 31.4756L36.5581 31.9731L35.2509 31.919ZM35.2509 31.919C34.8838 32.251 34.6737 32.7244 34.6737 33.219V34.4215C34.6737 34.5605 34.561 34.6731 34.4221 34.6731C34.2832 34.6731 34.1705 34.5605 34.1705 34.4215V32.5317C34.1705 31.6178 33.524 30.7666 32.5996 30.6739C32.0998 30.6237 31.6142 30.7811 31.2424 31.1174C30.8753 31.4494 30.6652 31.9229 30.6652 32.4174V33.62C30.6652 33.7589 30.5526 33.8716 30.4136 33.8716C30.2747 33.8716 30.162 33.7589 30.162 33.62V31.7303C30.162 30.8164 29.5156 29.9652 28.5913 29.8725C28.0912 29.8221 27.6056 29.9797 27.2339 30.3159C26.8669 30.648 26.6568 31.1214 26.6568 31.616V32.8185C26.6568 32.9575 26.5441 33.0701 26.4052 33.0701C26.2662 33.0701 26.1536 32.9574 26.1536 32.8185V19.5909C26.1536 19.0963 25.9434 18.623 25.5766 18.291L35.2509 31.919ZM25.5765 18.2909C25.2048 17.9545 24.7191 17.7973 24.2194 17.8474L25.5765 18.2909Z" fill="white" stroke="white"/>
</svg>
