<svg width="20" height="20" viewBox="0 0 20 20" fill="none" xmlns="http://www.w3.org/2000/svg">
<path d="M19.4855 14.7513L16.9992 12.265C16.3138 11.5796 15.1984 11.5796 14.513 12.265L13.3828 13.3951C12.8635 13.9144 12.0185 13.9143 11.4994 13.3953L6.60098 8.4927C6.08048 7.97219 6.0804 7.12973 6.60098 6.60914C6.78302 6.42711 7.30571 5.90442 7.7311 5.47903C8.41357 4.7966 8.4231 3.68469 7.73044 2.99211L5.24481 0.514297C4.55934 -0.171133 3.44399 -0.171133 2.76035 0.512501C2.24879 1.01961 2.08379 1.1832 1.85441 1.41059C-0.617467 3.88242 -0.617467 7.90442 1.8543 10.3762L9.61572 18.1417C12.0934 20.6193 16.1035 20.6195 18.5814 18.1417L19.4855 17.2375C20.171 16.5521 20.171 15.4368 19.4855 14.7513ZM3.58731 1.34305C3.81578 1.11457 4.1875 1.11453 4.41672 1.34367L6.90235 3.82149C7.13138 4.05051 7.13138 4.42117 6.90235 4.65024L6.48794 5.06461L3.17504 1.75172L3.58731 1.34305ZM10.4446 17.313L2.68316 9.54747C0.770739 7.63504 0.665621 4.63211 2.35988 2.5941L5.66317 5.89739C4.7952 6.88133 4.83137 8.38067 5.77204 9.32133L10.6703 14.2237C10.6704 14.2238 10.6704 14.2238 10.6705 14.2239C11.6101 15.1636 13.1094 15.2021 14.0946 14.3329L17.3979 17.6363C15.3664 19.3276 12.3702 19.2386 10.4446 17.313ZM18.6568 16.4088L18.2424 16.8232L14.9274 13.5081L15.3417 13.0938C15.5702 12.8653 15.942 12.8652 16.1705 13.0938L18.6568 15.58C18.8853 15.8086 18.8853 16.1804 18.6568 16.4088Z" fill="#DB4F4F"/>
</svg>
