<svg width="32" height="48" viewBox="0 0 32 48" fill="none" xmlns="http://www.w3.org/2000/svg">
<path fill-rule="evenodd" clip-rule="evenodd" d="M31.5974 9.38927C31.597 9.37901 31.5966 9.36876 31.5959 9.35851C31.593 9.31786 31.5889 9.27794 31.5809 9.23839C31.5809 9.23839 31.5809 9.23839 31.5809 9.23802C31.5728 9.19847 31.5615 9.15929 31.5487 9.1212C31.5454 9.11168 31.5421 9.10216 31.5384 9.09264C31.5249 9.05638 31.5095 9.02086 31.4919 8.98644C31.4908 8.98461 31.4901 8.98277 31.489 8.98094C31.4699 8.94506 31.4479 8.911 31.4241 8.87767C31.4183 8.86925 31.4121 8.86119 31.4058 8.85277C31.3806 8.81981 31.3542 8.78795 31.3245 8.75829L22.8409 0.274658C22.8112 0.244995 22.7794 0.218628 22.7464 0.193359C22.738 0.187134 22.7296 0.180542 22.7212 0.174682C22.6878 0.150879 22.6541 0.128906 22.6186 0.110229C22.6161 0.108764 22.6135 0.108032 22.6113 0.106567C22.5776 0.0889891 22.5424 0.0739745 22.5069 0.0604247C22.497 0.0567626 22.4875 0.0534667 22.4773 0.0501708C22.4392 0.0373535 22.4007 0.026001 22.3608 0.0179443C22.3604 0.0179443 22.3601 0.0179443 22.3601 0.0179443C22.3209 0.0102539 22.281 0.00585937 22.2407 0.00292968C22.2304 0.00256348 22.2202 0.00183105 22.2099 0.00146484C22.1993 0.00109864 22.1887 0 22.1781 0H0.937499C0.419677 0 0 0.419677 0 0.937499V41.0646C0 41.5825 0.419677 42.0021 0.937499 42.0021H15.052V47.0624C15.052 47.4034 15.2373 47.7176 15.5357 47.8827C15.8346 48.0479 16.1989 48.038 16.4879 47.8567L20.0584 45.6166L23.629 47.8567C23.781 47.952 23.9542 47.9999 24.1274 47.9999C24.2834 47.9999 24.4398 47.9611 24.5811 47.8831C24.8796 47.7179 25.0649 47.4037 25.0649 47.0624V42.0021H30.6613C31.1791 42.0021 31.5988 41.5825 31.5988 41.0646V9.42113C31.5988 9.41051 31.5977 9.39989 31.5974 9.38927ZM23.1156 3.20105L28.3981 8.48363H23.1156V3.20105ZM14.5895 28.9566C14.5235 28.7775 14.4162 28.4849 14.4137 28.3652C14.4869 28.2744 14.7411 28.1136 14.8967 28.0155C15.2307 27.8045 15.6094 27.565 15.884 27.1908C16.1612 26.8125 16.274 26.3756 16.3736 25.9903C16.4172 25.8219 16.4875 25.5498 16.5476 25.4469C16.5805 25.4399 16.6498 25.43 16.7798 25.43C16.8841 25.43 17.0009 25.4359 17.1247 25.4421C17.2668 25.4491 17.4133 25.4564 17.5664 25.4564C17.904 25.4564 18.1765 25.4183 18.4237 25.3359C18.8554 25.1923 19.2008 24.9144 19.5055 24.669C19.6739 24.5335 19.9559 24.3065 20.054 24.2926C20.1613 24.3065 20.443 24.5335 20.6114 24.669C20.9161 24.9144 21.2618 25.1923 21.6936 25.3359C21.9408 25.4183 22.2129 25.4564 22.5509 25.4564C22.7036 25.4564 22.8504 25.4491 22.9922 25.4421C23.1159 25.4359 23.2328 25.43 23.3375 25.43C23.4675 25.43 23.5363 25.4395 23.5697 25.4469C23.6297 25.5498 23.7 25.8219 23.7432 25.9903C23.8429 26.3756 23.956 26.8125 24.2332 27.1908C24.5075 27.565 24.8862 27.8042 25.2205 28.0155C25.3758 28.114 25.63 28.2744 25.7032 28.3652C25.7006 28.4849 25.5933 28.7775 25.5278 28.9566C25.3883 29.3364 25.2304 29.767 25.2304 30.2442C25.2304 30.7214 25.3883 31.1521 25.5274 31.5322C25.5933 31.7113 25.7006 32.0039 25.7032 32.1236C25.63 32.2144 25.3758 32.3748 25.2205 32.4733C24.8862 32.6843 24.5075 32.9238 24.2332 33.298C23.956 33.6763 23.8429 34.1132 23.7432 34.4985C23.7 34.6666 23.6294 34.939 23.5697 35.0419C23.5363 35.0489 23.4675 35.0588 23.3375 35.0588C23.2328 35.0588 23.1159 35.0529 22.9922 35.0467C22.8504 35.0397 22.7036 35.0324 22.5509 35.0324C22.2129 35.0324 21.9408 35.0705 21.6936 35.1529C21.2618 35.2965 20.9161 35.5748 20.6114 35.8198C20.4455 35.9538 20.1687 36.1761 20.0584 36.1959C19.9482 36.1761 19.6717 35.9538 19.5058 35.8198C19.2008 35.5748 18.8554 35.2965 18.4237 35.1529C18.1765 35.0705 17.904 35.0324 17.5664 35.0324C17.4137 35.0324 17.2668 35.0397 17.1247 35.0467C17.0013 35.0529 16.8845 35.0588 16.7798 35.0588C16.6498 35.0588 16.5809 35.0489 16.5476 35.0419C16.4875 34.939 16.4172 34.6669 16.3736 34.4985C16.2744 34.1132 16.1612 33.6763 15.884 33.298C15.6097 32.9238 15.2311 32.6843 14.8967 32.4733C14.7414 32.3752 14.4873 32.2144 14.414 32.1236C14.4166 32.0042 14.5239 31.7113 14.5895 31.5322C14.729 31.1524 14.8868 30.7218 14.8868 30.2446C14.8868 29.767 14.7286 29.3364 14.5895 28.9566ZM23.1899 45.3676L20.5569 43.7156C20.2522 43.5248 19.8647 43.5248 19.56 43.7156L16.927 45.3676V36.9309C17.0266 36.9279 17.1244 36.9243 17.2192 36.9195C17.3434 36.9129 17.4605 36.907 17.5664 36.907C17.7326 36.907 17.8037 36.9224 17.8311 36.9316C17.9428 36.9689 18.1574 37.1418 18.3299 37.2806C18.7675 37.6329 19.3121 38.0712 20.0584 38.0712C20.8048 38.0712 21.3493 37.6329 21.787 37.2806C21.9594 37.1418 22.174 36.9689 22.2854 36.9319C22.3132 36.9228 22.3842 36.9074 22.5505 36.9074C22.6563 36.9074 22.7735 36.9133 22.8977 36.9195C22.9925 36.9243 23.0903 36.9283 23.1895 36.9309V45.3676H23.1899ZM25.0649 40.1271V36.1754C25.3436 35.7967 25.46 35.3485 25.5586 34.9676C25.6102 34.7676 25.6809 34.4941 25.7453 34.4066C25.8094 34.3187 26.0478 34.1682 26.2218 34.0583C26.6832 33.7668 27.2574 33.4039 27.4856 32.7176C27.7111 32.0405 27.4764 31.4007 27.2878 30.8866C27.2021 30.6533 27.1051 30.3885 27.1051 30.2442C27.1051 30.0999 27.2021 29.8355 27.2878 29.6023C27.4764 29.0881 27.7111 28.448 27.4856 27.7708C27.2574 27.0849 26.6832 26.722 26.2218 26.4305C26.0478 26.3206 25.8094 26.1698 25.7453 26.0826C25.6809 25.9947 25.6102 25.7212 25.5586 25.5212C25.4238 24.9994 25.2561 24.3497 24.6818 23.9286C24.2248 23.5938 23.6956 23.555 23.3371 23.555C23.1855 23.555 23.039 23.5623 22.8977 23.5697C22.7735 23.5759 22.6563 23.5818 22.5509 23.5818C22.3842 23.5818 22.3132 23.5664 22.2857 23.5572C22.1744 23.5202 21.9598 23.3474 21.7873 23.2082C21.3493 22.8563 20.8048 22.4179 20.0584 22.4179C19.3125 22.4179 18.7675 22.8563 18.3299 23.2082C18.1574 23.347 17.9428 23.5202 17.8315 23.5572C17.804 23.5664 17.7326 23.5818 17.5664 23.5818C17.4609 23.5818 17.3434 23.5759 17.2192 23.5693C17.0779 23.5623 16.9317 23.555 16.7798 23.555C16.4216 23.555 15.8924 23.5938 15.4358 23.9286C14.8612 24.3497 14.6931 24.9994 14.5583 25.5212C14.5067 25.7212 14.436 25.9947 14.3719 26.0822C14.3075 26.1698 14.0691 26.3206 13.8951 26.4305C13.4337 26.722 12.8598 27.0849 12.6313 27.7708C12.4057 28.4483 12.6405 29.0881 12.8291 29.6023C12.9148 29.8355 13.0118 30.0999 13.0118 30.2442C13.0118 30.3885 12.9148 30.6533 12.8291 30.8866C12.6405 31.4007 12.4057 32.0405 12.6313 32.718C12.8598 33.4039 13.4341 33.7668 13.8951 34.0583C14.0694 34.1682 14.3075 34.319 14.3719 34.4066C14.436 34.4941 14.5067 34.7676 14.5583 34.9676C14.6568 35.3485 14.7737 35.7971 15.0523 36.1754V40.1271H1.875V1.875H21.2406V9.42113C21.2406 9.93895 21.6602 10.3586 22.1781 10.3586H29.7238V40.1271H25.0649Z" fill="white"/>
<path fill-rule="evenodd" clip-rule="evenodd" d="M5.51843 10.3586H17.5968C18.1143 10.3586 18.5343 9.93897 18.5343 9.42114C18.5343 8.90332 18.1143 8.48364 17.5968 8.48364H5.51843C5.00061 8.48364 4.58093 8.90332 4.58093 9.42114C4.58093 9.93897 5.00098 10.3586 5.51843 10.3586Z" fill="white"/>
<path fill-rule="evenodd" clip-rule="evenodd" d="M26.1852 13.2158H5.51843C5.00061 13.2158 4.58093 13.6355 4.58093 14.1533C4.58093 14.6711 5.00061 15.0908 5.51843 15.0908H26.1852C26.703 15.0908 27.1227 14.6711 27.1227 14.1533C27.1227 13.6355 26.703 13.2158 26.1852 13.2158Z" fill="white"/>
<path fill-rule="evenodd" clip-rule="evenodd" d="M22.4352 17.948H5.51843C5.00061 17.948 4.58093 18.368 4.58093 18.8855C4.58093 19.4033 5.00061 19.823 5.51843 19.823H22.4352C22.953 19.823 23.3727 19.4033 23.3727 18.8855C23.3727 18.368 22.953 17.948 22.4352 17.948Z" fill="white"/>
<path fill-rule="evenodd" clip-rule="evenodd" d="M26.1852 17.948C25.6688 17.948 25.2477 18.3691 25.2477 18.8855C25.2477 19.4019 25.6688 19.823 26.1852 19.823C26.7019 19.823 27.1227 19.4019 27.1227 18.8855C27.1227 18.3691 26.7019 17.948 26.1852 17.948Z" fill="white"/>
</svg>
