<svg width="25" height="25" viewBox="0 0 25 25" fill="none" xmlns="http://www.w3.org/2000/svg">
<path d="M6.45166 14.5161H8.87102V15.3226H6.45166V14.5161Z" fill="white"/>
<path d="M6.45166 17.7419H12.0968V18.5484H6.45166V17.7419Z" fill="white"/>
<path d="M6.45166 16.129H16.9355V16.9355H6.45166V16.129Z" fill="white"/>
<path d="M12.9033 19.3549H13.7098V20.1613H12.9033V19.3549Z" fill="white"/>
<path d="M14.5161 19.3549H15.3226V20.1613H14.5161V19.3549Z" fill="white"/>
<path d="M16.1289 19.3549H16.9354V20.1613H16.1289V19.3549Z" fill="white"/>
<path d="M13.71 17.7419H16.9358V18.5484H13.71V17.7419Z" fill="white"/>
<path d="M24.3972 3.66573L24.6387 3.42419C24.8718 3.19073 25 2.88105 25 2.55161C25 1.14476 23.8552 0 22.4484 0C22.1185 0 21.8085 0.128226 21.5758 0.36129L20.3242 1.6129H1.20968C0.542742 1.6129 0 2.15565 0 2.82258V23.7903C0 24.4573 0.542742 25 1.20968 25H22.1774C22.8444 25 23.3871 24.4573 23.3871 23.7903V7.02177L24.5968 5.8121C24.8569 5.55161 25 5.20605 25 4.83871C25 4.47137 24.8569 4.1254 24.5968 3.86532L24.3972 3.66573ZM22.146 0.931855C22.2266 0.850806 22.3339 0.806452 22.4484 0.806452C23.4109 0.806452 24.1935 1.58911 24.1935 2.55161C24.1935 2.66573 24.1492 2.77339 24.0681 2.85403L21.2056 5.71653L19.2835 3.79435L22.146 0.931855ZM14.5528 12.3698L12.6302 10.4472L18.7133 4.36411L20.6355 6.28629L14.5528 12.3698ZM12.1024 11.0597L13.9403 12.8976C13.2141 13.4222 12.3464 13.7097 11.4331 13.7097C11.3544 13.7097 11.2903 13.646 11.2903 13.5669C11.2903 12.6536 11.5774 11.7859 12.1024 11.0597ZM10.5431 13.8867L9.79556 14.6343L10.3657 15.2044L11.1133 14.4569C11.2137 14.4931 11.3202 14.5161 11.4331 14.5161C12.796 14.5161 14.0778 13.9855 15.0415 13.0214L15.1597 12.9032H18.5484V20.9677H4.83871V12.9032H10.5319C10.5036 13.1222 10.4839 13.3427 10.4839 13.5669C10.4839 13.6798 10.5069 13.7863 10.5431 13.8867ZM9.67742 2.41935H13.7097V5.075L13.3065 4.67177L12.5 5.47823L11.6935 4.67177L10.8871 5.47823L10.0806 4.67177L9.67742 5.075V2.41935ZM22.5806 23.7903C22.5806 24.0129 22.3996 24.1935 22.1774 24.1935H1.20968C0.9875 24.1935 0.806452 24.0129 0.806452 23.7903V2.82258C0.806452 2.6 0.9875 2.41935 1.20968 2.41935H8.87097V7.02177L10.0806 5.8121L10.8871 6.61855L11.6935 5.8121L12.5 6.61855L13.3065 5.8121L14.5161 7.02177V2.41935H19.5177L11.9786 9.95847C11.3722 10.5649 10.9379 11.2972 10.6984 12.0968H4.83871C4.39395 12.0968 4.03226 12.4585 4.03226 12.9032V20.9677C4.03226 21.4125 4.39395 21.7742 4.83871 21.7742H18.5484C18.9931 21.7742 19.3548 21.4125 19.3548 20.9677V12.9032C19.3548 12.4585 18.9931 12.0968 18.5484 12.0968H15.9661L19.7948 8.26814L19.994 8.46774C20.254 8.72782 20.5996 8.87097 20.9677 8.87097C21.3359 8.87097 21.6815 8.72782 21.9411 8.46774L22.5806 7.82823V23.7903ZM24.0266 5.24194L21.371 7.89758C21.156 8.11331 20.7802 8.11331 20.5645 7.89758L20.3649 7.69798L23.827 4.23589L24.0262 4.43548C24.1343 4.54355 24.1935 4.68629 24.1935 4.83871C24.1935 4.99113 24.1343 5.13387 24.0266 5.24194Z" fill="white"/>
</svg>
