<svg version="1.1" xmlns="http://www.w3.org/2000/svg" xmlns:xlink="http://www.w3.org/1999/xlink">
<defs>
<symbol id="icon-twitter" viewBox="0 0 32 32">
<path d="M16 0c-8.835 0-16 7.165-16 16s7.165 16 16 16c8.835 0 16-7.165 16-16s-7.165-16-16-16zM23.305 12.475c0.007 0.157 0.011 0.316 0.011 0.475 0 4.853-3.694 10.449-10.449 10.449v0c-2.074 0-4.004-0.608-5.629-1.65 0.287 0.034 0.58 0.051 0.876 0.051 1.721 0 3.304-0.587 4.561-1.572-1.608-0.030-2.963-1.092-3.431-2.551 0.224 0.043 0.454 0.066 0.69 0.066 0.335 0 0.66-0.045 0.969-0.129-1.68-0.336-2.946-1.821-2.946-3.6 0-0.017 0-0.031 0-0.047 0.495 0.275 1.061 0.441 1.663 0.459-0.986-0.658-1.634-1.783-1.634-3.057 0-0.673 0.182-1.303 0.497-1.846 1.811 2.222 4.518 3.684 7.57 3.837-0.063-0.269-0.095-0.549-0.095-0.837 0-2.027 1.645-3.672 3.673-3.672 1.056 0 2.011 0.447 2.681 1.16 0.837-0.165 1.622-0.471 2.332-0.891-0.275 0.857-0.857 1.576-1.615 2.031 0.743-0.089 1.451-0.286 2.109-0.578-0.491 0.737-1.115 1.384-1.832 1.902z"></path>
</symbol>
<symbol id="icon-soundcloud" viewBox="0 0 32 32">
<path d="M16 0c-8.836 0-16 7.163-16 16s7.164 16 16 16c8.836 0 16-7.163 16-16s-7.164-16-16-16zM2.533 20.353c-0.009 0.063-0.054 0.108-0.111 0.108s-0.103-0.045-0.111-0.108l-0.203-1.517 0.203-1.543c0.008-0.064 0.054-0.109 0.111-0.109s0.102 0.044 0.111 0.108l0.241 1.544-0.241 1.517zM3.566 21.276c-0.010 0.066-0.058 0.112-0.116 0.112s-0.107-0.047-0.116-0.112l-0.273-2.44 0.273-2.495c0.008-0.065 0.057-0.113 0.116-0.113s0.106 0.046 0.116 0.113l0.31 2.495-0.31 2.44zM4.681 21.689c-0.008 0.079-0.067 0.136-0.139 0.136-0.073 0-0.132-0.057-0.139-0.137l-0.259-2.852c0 0 0.259-2.96 0.259-2.961 0.007-0.079 0.066-0.136 0.139-0.136s0.131 0.057 0.139 0.136l0.294 2.961-0.294 2.853zM5.805 21.779c-0.008 0.091-0.078 0.16-0.163 0.16-0.086 0-0.157-0.069-0.164-0.16l-0.245-2.943 0.245-3.042c0.007-0.092 0.077-0.16 0.164-0.16 0.085 0 0.155 0.069 0.163 0.159l0.278 3.043-0.278 2.943zM6.938 21.804c-0.007 0.104-0.088 0.184-0.187 0.184s-0.18-0.079-0.187-0.184l-0.231-2.967 0.231-2.822c0.007-0.105 0.087-0.184 0.187-0.184s0.18 0.079 0.187 0.183l0.262 2.823-0.262 2.967zM8.080 21.805v-0.001c-0.007 0.116-0.099 0.208-0.21 0.208-0.113 0-0.205-0.092-0.211-0.208l-0.216-2.967 0.216-4.591c0.006-0.117 0.098-0.208 0.211-0.208 0.112 0 0.204 0.091 0.21 0.208l0.246 4.591-0.246 2.967zM9.214 21.802v-0.002c-0.006 0.13-0.109 0.232-0.234 0.232s-0.229-0.101-0.233-0.231l-0.204-2.948c0 0 0.203-5.64 0.203-5.641 0.006-0.13 0.109-0.232 0.234-0.232s0.229 0.102 0.234 0.232l0.229 5.641-0.229 2.949zM10.391 21.757v-0.002c-0.006 0.143-0.118 0.255-0.257 0.255s-0.253-0.112-0.258-0.254l-0.189-2.918c0 0 0.189-6.111 0.189-6.112 0.005-0.143 0.118-0.256 0.258-0.256s0.252 0.112 0.257 0.256l0.213 6.112-0.213 2.919zM11.56 21.738c-0.005 0.157-0.129 0.279-0.281 0.279-0.154 0-0.277-0.123-0.281-0.278l-0.175-2.9 0.175-6.317c0.005-0.157 0.128-0.28 0.282-0.28s0.277 0.123 0.281 0.28l0.197 6.318-0.197 2.898zM12.737 21.712v-0.002c-0.005 0.17-0.138 0.304-0.305 0.304s-0.301-0.134-0.305-0.302l-0.161-2.872 0.16-6.156c0.005-0.17 0.138-0.303 0.306-0.303s0.301 0.133 0.305 0.303l0.182 6.157-0.182 2.873zM13.924 21.694v-0.002c-0.004 0.184-0.148 0.327-0.329 0.327s-0.325-0.144-0.329-0.326l-0.147-2.854 0.147-5.932c0.004-0.184 0.149-0.327 0.329-0.327s0.325 0.144 0.329 0.327l0.165 5.932-0.165 2.854zM15.135 21.395l-0.015 0.28c-0.002 0.096-0.043 0.184-0.106 0.248s-0.151 0.103-0.247 0.103c-0.108 0-0.205-0.050-0.27-0.128-0.048-0.058-0.078-0.131-0.082-0.21-0.001-0.004-0.001-0.008-0.001-0.012 0 0-0.133-2.833-0.133-2.837l0.132-6.99 0.001-0.066c0.002-0.123 0.066-0.232 0.163-0.294 0.055-0.036 0.12-0.057 0.19-0.057s0.139 0.022 0.195 0.060c0.093 0.063 0.156 0.17 0.158 0.291l0.148 7.059-0.133 2.555zM16.311 21.636v-0.003c-0.004 0.206-0.172 0.375-0.377 0.375s-0.374-0.169-0.377-0.373l-0.076-1.378-0.078-1.416 0.153-7.659 0.001-0.039c0.001-0.117 0.056-0.221 0.14-0.29 0.065-0.054 0.147-0.086 0.237-0.086 0.070 0 0.135 0.020 0.191 0.054 0.108 0.066 0.183 0.185 0.185 0.321l0.167 7.699-0.167 2.794zM26.475 22.015c0 0-9.464 0.001-9.473 0-0.205-0.020-0.367-0.183-0.369-0.392 0 0 0-10.846 0-10.846 0.002-0.199 0.070-0.302 0.329-0.402 0.663-0.257 1.415-0.409 2.185-0.409 3.151 0 5.734 2.416 6.006 5.495 0.407-0.17 0.853-0.265 1.322-0.265 1.888 0 3.417 1.53 3.417 3.417s-1.529 3.401-3.417 3.401z"></path>
</symbol>
<symbol id="icon-instagram" viewBox="0 0 32 32">
<path d="M19.063 16c0 1.691-1.371 3.063-3.063 3.063s-3.063-1.371-3.063-3.063c0-1.691 1.371-3.063 3.063-3.063s3.063 1.371 3.063 3.063z"></path>
<path d="M16 0c-8.835 0-16 7.165-16 16s7.165 16 16 16c8.835 0 16-7.165 16-16s-7.165-16-16-16zM25.132 19.788c-0.044 0.978-0.2 1.646-0.427 2.23-0.477 1.234-1.453 2.21-2.687 2.687-0.584 0.227-1.252 0.382-2.23 0.427-0.98 0.045-1.293 0.055-3.788 0.055s-2.808-0.011-3.788-0.055c-0.978-0.045-1.646-0.2-2.23-0.427-0.613-0.231-1.168-0.592-1.627-1.060-0.467-0.459-0.829-1.014-1.060-1.627-0.227-0.584-0.383-1.252-0.427-2.23-0.045-0.98-0.056-1.293-0.056-3.788s0.011-2.808 0.055-3.788c0.044-0.978 0.2-1.646 0.427-2.23 0.231-0.613 0.593-1.168 1.060-1.627 0.459-0.468 1.014-0.829 1.627-1.060 0.584-0.227 1.252-0.382 2.23-0.427 0.98-0.045 1.293-0.055 3.788-0.055s2.808 0.011 3.788 0.056c0.978 0.044 1.646 0.2 2.23 0.427 0.613 0.231 1.169 0.593 1.628 1.060 0.467 0.459 0.829 1.014 1.059 1.627 0.227 0.584 0.383 1.252 0.427 2.23 0.045 0.98 0.055 1.293 0.055 3.788s-0.011 2.808-0.055 3.788z"></path>
</symbol>
<symbol id="icon-facebook" viewBox="0 0 33 32">
<path d="M16.067 0c-8.873 0-16.067 7.194-16.067 16.067 0 7.959 5.792 14.549 13.387 15.826v-12.474h-3.876v-4.489h3.876v-3.31c0-3.84 2.345-5.933 5.772-5.933 1.641 0 3.051 0.122 3.461 0.176v4.014l-2.376 0.001c-1.863 0-2.222 0.885-2.222 2.184v2.865h4.445l-0.58 4.489h-3.865v12.583c7.949-0.968 14.112-7.726 14.112-15.938 0-8.869-7.193-16.062-16.067-16.062z"></path>
</symbol>
</defs>
</svg>
