<svg width="16" height="16" viewBox="0 0 16 16" fill="none" xmlns="http://www.w3.org/2000/svg"><path d="M2.5 10h1.667a.5.5 0 00.5-.5V7.833a.5.5 0 00-.5-.5H2.5a.5.5 0 00-.5.5V9.5a.5.5 0 00.5.5zm0 4h1.667a.5.5 0 00.5-.5v-1.667a.5.5 0 00-.5-.5H2.5a.5.5 0 00-.5.5V13.5a.5.5 0 00.5.5zm4.667-4h1.666a.5.5 0 00.5-.5V7.833a.5.5 0 00-.5-.5H7.167a.5.5 0 00-.5.5V9.5a.5.5 0 00.5.5zm0 4h1.666a.5.5 0 00.5-.5v-1.667a.5.5 0 00-.5-.5H7.167a.5.5 0 00-.5.5V13.5a.5.5 0 00.5.5zm4.666-4H13.5a.5.5 0 00.5-.5V7.833a.5.5 0 00-.5-.5h-1.667a.5.5 0 00-.5.5V9.5a.5.5 0 00.5.5z" fill="#222"/><path d="M14 2h-.667V.667A.667.667 0 0012.667 0H12a.667.667 0 00-.667.667V2H4.667V.667A.667.667 0 004 0h-.667a.667.667 0 00-.666.667V2H2C.897 2 0 2.897 0 4v10c0 1.103.897 2 2 2h12c1.103 0 2-.897 2-2V4c0-1.103-.897-2-2-2zm.667 12c0 .367-.3.667-.667.667H2A.668.668 0 011.333 14V6.693h13.334V14z" fill="#222"/></svg>