<svg width="48" height="48" viewBox="0 0 48 48" fill="none" xmlns="http://www.w3.org/2000/svg"><path d="M46.936 8.094l-22.392-8a1.642 1.642 0 00-1.093 0l-22.387 8a1.6 1.6 0 000 3.01L12 15.011V20c0 3.11 10.772 3.2 12 3.2 1.228 0 12-.09 12-3.2v-4.99l2.4-.852V16a1.6 1.6 0 001.6 1.6h1.6a1.6 1.6 0 001.6-1.6v-2.4a2.366 2.366 0 00-.26-1.064l4-1.43a1.6 1.6 0 000-3.011h-.004zM34.4 18.24c-3.048-1.388-9.469-1.44-10.4-1.44-.933 0-7.354.052-10.4 1.44v-6.97c.48-.616 4.252-1.67 10.4-1.67 6.147 0 9.92 1.054 10.4 1.67v6.97zM24 21.6c-5.92 0-9.638-.978-10.334-1.6.696-.623 4.415-1.6 10.333-1.6 5.919 0 9.638.977 10.333 1.6-.695.622-4.412 1.6-10.333 1.6zm14.775-9.277l-2.775.99v-2.114C36 8.09 25.228 8 24 8c-1.229 0-12 .09-12 3.2v2.113L1.6 9.6l22.412-8L40 7.313v4.034c-.506.18-.937.523-1.225.976zM41.6 16H40v-2.4a.8.8 0 011.6 0V16zm0-4.684v-3.43L46.4 9.6l-4.8 1.716zm4 13.484a.791.791 0 00-.142.012A133.95 133.95 0 0124 26.4a133.951 133.951 0 01-21.457-1.588.916.916 0 00-.143-.012c-.56 0-2.4.634-2.4 8.8s1.84 8.8 2.4 8.8a.905.905 0 00.143-.014 125.132 125.132 0 0116.48-1.503l-1.561 3.746a1.594 1.594 0 002.114 2.053l.612-.261.265.609c.25.59.83.972 1.471.97h.02a1.594 1.594 0 001.467-.998l1.39-3.327 1.384 3.314A1.6 1.6 0 0027.657 48h.023a1.589 1.589 0 001.466-.96l.267-.614.603.259a1.594 1.594 0 002.119-2.064l-1.531-3.672c4.977.177 9.939.658 14.858 1.44a.782.782 0 00.139.01c.56 0 2.4-.633 2.4-8.8 0-8.165-1.84-8.8-2.4-8.8zm-19.04 3.176c.333 1.221.526 2.476.577 3.741a5.552 5.552 0 00-5.569.518 21.61 21.61 0 00-.55-4.266 143.13 143.13 0 005.542.007zM24.8 40.8a4 4 0 110-8 4 4 0 010 8zm-22.4-14c.613 2.212.883 4.505.8 6.8a22.438 22.438 0 01-.8 6.8 22.438 22.438 0 01-.8-6.8 22.438 22.438 0 01.8-6.8zm1.616 13.736c.438-1.269.784-3.392.784-6.936s-.346-5.668-.785-6.938a140.385 140.385 0 0015.332 1.267c.48 1.85.7 3.76.653 5.67 0 .117 0 .227-.005.338a5.543 5.543 0 00-.257 5.242l-.035.085a139.36 139.36 0 00-15.687 1.273v-.001zm17.91 5.864l-.584-1.344a.8.8 0 00-1.049-.416l-1.346.595 1.876-4.498a5.594 5.594 0 002.825 1.544L21.926 46.4zm7.382-1.76a.8.8 0 00-1.05.416l-.591 1.33-1.715-4.106a5.6 5.6 0 002.828-1.545l1.872 4.48-1.344-.575zm16.133-3.88a129.55 129.55 0 00-15.52-1.44l-.057-.138a5.567 5.567 0 00-1.079-6.309 22.27 22.27 0 00-.57-4.928c5.768-.13 11.522-.633 17.226-1.506.37.63.96 3.124.96 7.16 0 4.038-.593 6.53-.96 7.16z" fill="#fff"/></svg>