<svg width="14" height="17" viewBox="0 0 14 17" fill="none" xmlns="http://www.w3.org/2000/svg"><path d="M9.31 1.092A.387.387 0 009.032.97H2.79A2.111 2.111 0 00.687 3.067V14.87c0 1.152.951 2.099 2.103 2.099h8.471a2.111 2.111 0 002.103-2.099V5.498c0-.1-.047-.197-.112-.27L9.31 1.092zm.112 1.241l2.64 2.771h-1.716a.92.92 0 01-.924-.92V2.333zm1.84 13.863H2.79c-.723 0-1.33-.6-1.33-1.326V3.067c0-.722.603-1.325 1.33-1.325h5.859v2.442c0 .94.757 1.693 1.697 1.693h2.245v8.993c0 .727-.603 1.326-1.33 1.326z" fill="#DB4F4F"/><path d="M10.206 13.53H3.845a.388.388 0 00-.387.386c0 .212.174.386.387.386h6.365a.388.388 0 00.387-.386.388.388 0 00-.39-.387zm-3.462-1.388a.39.39 0 00.282.123.389.389 0 00.282-.123L9.573 9.71a.385.385 0 10-.565-.526l-1.596 1.712v-4.22a.388.388 0 00-.386-.386.388.388 0 00-.387.386v4.22L5.047 9.185a.385.385 0 10-.564.526l2.26 2.43z" fill="#DB4F4F"/></svg>