<svg width="49" height="49" viewBox="0 0 49 49" fill="none" xmlns="http://www.w3.org/2000/svg"><path d="M45.259 12.5h-7.704l-1.563 21.875h-1.617v-6.25h-1.86L31.19 10.937h-7.697l-.621 8.081-.18.089a13.925 13.925 0 00-3.574-1.47l-.694-1.23h-5.6l-.695 1.23a13.969 13.969 0 00-3.575 1.47l-1.923-.96-4.112 4.11.962 1.923a13.985 13.985 0 00-1.447 3.483L0 28.343v5.813l2.036.68a13.92 13.92 0 001.447 3.483l-.962 1.923 4.112 4.112 1.924-.962c.642.38 1.781 1.035 2.381 1.38v3.666h37.5V34.374h-1.616L45.259 12.5zm-1.455 1.563l.223 3.124h-5.242l.224-3.125h4.795zm-5.13 4.687h5.465l1.116 15.625h-7.697l1.115-15.625zm-27.736 9.375v11.24A9.345 9.345 0 016.25 31.25c0-5.17 4.206-9.375 9.375-9.375a9.37 9.37 0 016.802 2.941l-.254 3.309H10.938zM24.58 17.187h5.524l.842 10.938H23.74l.841-10.938zm5.164-4.687l.24 3.125h-5.283l.24-3.125h4.803zM9.005 41.84l-.372-.234-1.692.847-2.52-2.519.848-1.693-.233-.372a12.399 12.399 0 01-1.583-3.813l-.098-.429-1.792-.596v-3.562l1.792-.598.098-.428a12.39 12.39 0 011.583-3.813l.233-.372-.847-1.692 2.519-2.518 1.693.846.372-.233a12.381 12.381 0 013.813-1.583l.337-.077.582-1.032h3.774L18.095 19l.337.077a12.4 12.4 0 013.813 1.583l.373.233.117-.059-.153 1.995a10.931 10.931 0 00-6.956-2.517c-6.031 0-10.938 4.906-10.938 10.937 0 4.252 2.439 8.069 6.25 9.877v1.842a104.39 104.39 0 01-1.932-1.13zm11.307 5.035H12.5V29.687h20.313v4.688h-8.918l-3.582 3.583v8.917zm7.813 0H25v-4.688h3.125v4.688zm7.813 0h-3.126v-4.688h3.126v4.688zm7.812 0h-3.125v-4.688h3.125v4.688zm1.563 0v-6.25h-6.25v6.25H37.5v-6.25h-6.25v6.25h-1.563v-6.25h-6.25v6.25h-1.562v-7.813h25v7.813h-1.563zm1.562-9.375H22.98l1.562-1.563h22.333V37.5zM39.063 6.25h7.03a.782.782 0 010 1.563h-1.562a2.347 2.347 0 00-2.343 2.343v.781h1.562v-.78c0-.431.35-.782.781-.782h1.563a2.347 2.347 0 002.343-2.344 2.347 2.347 0 00-2.343-2.343h-7.032V6.25z" fill="#fff"/><path d="M36.719 9.375h1.562c.431 0 .782.35.782.781v.781h1.562v-.78a2.347 2.347 0 00-2.344-2.345H36.72a2.347 2.347 0 01-2.344-2.343 2.347 2.347 0 012.344-2.344h5.468V1.562H36.72a3.91 3.91 0 00-3.907 3.907 3.91 3.91 0 003.907 3.906zm7.031-7.812h1.563v1.562H43.75V1.562zM6.25 4.688h5.469c.431 0 .781.35.781.78a2.347 2.347 0 002.344 2.345h9.375c.431 0 .781.35.781.78v.782h1.563v-.781a2.347 2.347 0 00-2.344-2.344h-9.375a.782.782 0 01-.781-.781 2.347 2.347 0 00-2.344-2.344H6.25a.782.782 0 010-1.563h8.594V0H6.25a2.347 2.347 0 00-2.344 2.344A2.347 2.347 0 006.25 4.688z" fill="#fff"/><path d="M21.875 4.688h2.344a3.91 3.91 0 013.906 3.906v.781h1.563v-.781a5.475 5.475 0 00-5.47-5.469h-2.343a.782.782 0 010-1.563h8.594V0h-8.594a2.347 2.347 0 00-2.344 2.344 2.347 2.347 0 002.344 2.344zm4.688 26.562h1.562v1.563h-1.563V31.25zm3.125 0h1.562v1.563h-1.563V31.25zm-6.25 0H25v1.563h-1.563V31.25zm-3.125 0h1.562v1.563h-1.563V31.25zm-6.25 0h1.562v1.563h-1.563V31.25zm3.125 0h1.562v1.563h-1.563V31.25zm0 3.125h1.562v1.563h-1.563v-1.563zm-3.125 0h1.562v1.563h-1.563v-1.563zm3.125 3.125h1.562v1.563h-1.563V37.5zm-3.125 0h1.562v1.563h-1.563V37.5zm0 3.125h1.562v1.563h-1.563v-1.563zm3.125 0h1.562v1.563h-1.563v-1.563zm0 3.125h1.562v1.563h-1.563V43.75zm-3.125 0h1.562v1.563h-1.563V43.75zm12.5-25h1.562v1.563h-1.563V18.75zm0 6.25h1.562v1.563h-1.563V25zm0-3.125h1.562v1.563h-1.563v-1.563zm14.062-1.562h1.563v1.562h-1.563v-1.563zm0 6.25h1.563v1.562h-1.563v-1.563zm0-3.125h1.563V25h-1.563v-1.563zm0 6.25h1.563v1.562h-1.563v-1.563z" fill="#fff"/></svg>