<svg width="124" height="102" viewBox="0 0 124 102" fill="none" xmlns="http://www.w3.org/2000/svg"><path d="M92.228 76.99c-17.53 0-26.493-10.236-26.93-30.486 0-20.137 8.869-30.262 26.71-30.6 14.011 0 22.011 6.123 24.531 18.916l-15.556.237c-1.753-4.005-4.816-6.12-9.415-6.12-7.662 0-11.495 5.897-11.495 17.58 0 11.681 4.05 17.578 12.152 17.466 3.392 0 6.348-1.447 8.758-4.228a6.652 6.652 0 014.926-2.118h10.948c-2.627 12.011-11.165 19.688-24.63 19.352zM25.892 27.371v32.595c0 2.448 1.423 3.782 4.27 3.782h4.485v11.239c-5.103.46-10.24.42-15.336-.119-5.475-.555-8.102-4.005-7.992-10.57V0h7.556c3.832 0 7.005 3.565 7.005 7.454V27.36l.012.011z" fill="#000"/><path d="M88.38 29.33c-4.357 1.188-6.995 4.975-7.912 11.36H0V29.787l68.385-.374 19.995-.084z" fill="#DB4F4F"/><path d="M64 40.702H37.731V29.787l26.044-.374s.208 11.981.225 11.29z" fill="url(#paint0_linear)"/><path d="M50.506.594c4.816 0 7.13 2.43 7.006 7.175v4.293H42.954V.594h7.552zm0 16.673c4.706 0 7.006 2.317 7.006 7.065V75.67H42.954V17.252l7.552.015z" fill="#000"/><path d="M123.203 36.37v4.332H80.468c.657-4.53 2.166-7.766 4.564-9.67a8.973 8.973 0 013.348-1.69l6.24-.034 7.129-.032 13.15-.066 1.675.084c4.543.362 6.745 2.742 6.629 7.076z" fill="#DB4F4F"/><path d="M114.798 29.196l-12.909.065-7.008.033-6.124.032c-1.242.345 6.688-1.066 11.522 7.13h16.257c0-3.27-1.738-7.26-1.738-7.26z" fill="url(#paint1_linear)"/><path d="M92.008 15.91c14.011 0 22.011 6.123 24.531 18.916l-15.556.231c-1.753-4.005-4.816-6.12-9.415-6.12-7.662-.009-17.404-12.692.44-13.028z" fill="#000"/><path d="M12.68 97.24c-1.693 0-2.987-.5-3.88-1.5-.893-1-1.34-2.593-1.34-4.78v-7h2.96v7.3c0 1.28.193 2.173.58 2.68.387.507.947.76 1.68.76s1.3-.253 1.7-.76c.4-.507.6-1.4.6-2.68v-7.3h2.84v7c0 2.187-.44 3.78-1.32 4.78-.867 1-2.14 1.5-3.82 1.5zM26.04 97V83.96h2.94v5.34h.08l3.88-5.34h3.24l-3.94 5.2L36.9 97h-3.22l-3.18-5.5-1.52 2V97h-2.94zm17.486 0V83.96h4.7c.693 0 1.34.067 1.94.2.613.133 1.147.36 1.6.68.453.307.813.72 1.08 1.24.267.52.4 1.167.4 1.94 0 .96-.213 1.753-.64 2.38a3.802 3.802 0 01-1.68 1.38l2.96 5.22h-3.3l-2.5-4.7h-1.62V97h-2.94zm2.94-7.04h1.52c.773 0 1.36-.16 1.76-.48.413-.333.62-.82.62-1.46s-.207-1.087-.62-1.34c-.4-.253-.987-.38-1.76-.38h-1.52v3.66zm17.43.44l-.32 1.2h2.78l-.3-1.2a46.519 46.519 0 01-.54-2.08 125.05 125.05 0 00-.52-2.12h-.08c-.16.693-.327 1.407-.5 2.14-.16.72-.334 1.407-.52 2.06zm-4.72 6.6l4.08-13.04h3.54L70.875 97h-3.12l-.8-3.1h-3.98l-.8 3.1h-3zM77.5 97V83.96h2.94V97H77.5zm11.216 0V83.96h3.02l3.4 6.48 1.28 2.88h.08c-.067-.693-.147-1.467-.24-2.32-.08-.853-.12-1.667-.12-2.44v-4.6h2.8V97h-3.02l-3.4-6.5-1.28-2.84h-.08c.066.72.14 1.493.22 2.32.093.827.14 1.627.14 2.4V97h-2.8zm18.501 0V83.96h8.16v2.48h-5.22v2.62h4.44v2.46h-4.44v3h5.42V97h-8.36z" fill="#DB4F4F"/><defs><linearGradient id="paint0_linear" x1="37.589" y1="35.23" x2="63.543" y2="35.075" gradientUnits="userSpaceOnUse"><stop stop-color="#DB4F4F"/><stop offset=".19" stop-color="#BC2D2D"/><stop offset=".39" stop-color="#9E0C0C"/><stop offset=".51" stop-color="#930000"/><stop offset=".95" stop-color="#D44747"/><stop offset="1" stop-color="#DB4F4F"/></linearGradient><linearGradient id="paint1_linear" x1="94.518" y1="56.787" x2="112.228" y2="4.376" gradientUnits="userSpaceOnUse"><stop offset=".27" stop-color="#DB4F4F" stop-opacity=".4"/><stop offset=".36" stop-color="#C93C3C" stop-opacity=".55"/><stop offset=".61" stop-color="#A21010" stop-opacity=".88"/><stop offset=".75" stop-color="#930000"/><stop offset="1" stop-color="#DB4F4F" stop-opacity=".4"/></linearGradient></defs></svg>