<svg width="101" height="80" viewBox="0 0 101 80" fill="none" xmlns="http://www.w3.org/2000/svg"><g opacity=".2" fill="#fff"><path d="M-34.12 85.18c18.94-14.367 52.174-39.642 61.942-47.523 1.311-1.063 2.718-1.604 4.178-1.604 1.457 0 2.861.536 4.17 1.594 9.775 7.889 43.01 33.167 61.95 47.533 1.178.893 1.358 2.462.404 3.553-2.207 2.522-5.498 3.968-9.024 3.968h-115c-3.526 0-6.817-1.446-9.023-3.968-.955-1.091-.775-2.66.404-3.553zm133.452-7.785c-1.019.425-2.218.277-3.066-.372-12.404-9.418-28.747-21.86-41.072-31.356-.649-.498-1.014-1.23-1-1.997.014-.764.41-1.486 1.078-1.964 11.453-8.215 28.711-19.516 41.174-27.548a3.096 3.096 0 011.679-.485c.45 0 .898.093 1.311.284.961.44 1.564 1.325 1.564 2.29V75.06c0 1.003-.652 1.916-1.668 2.336zM-32.446 14.158C-19.98 22.19-2.719 33.49 8.73 41.706c.669.478 1.065 1.2 1.079 1.964.014.767-.351 1.499-1 1.997-12.325 9.495-28.671 21.938-41.075 31.355-.854.65-2.055.792-3.066.373-1.017-.42-1.668-1.333-1.668-2.336V16.247c0-.965.604-1.85 1.564-2.29a3.12 3.12 0 011.311-.285c.593 0 1.182.164 1.679.486z"/><path d="M97.476 7.152C85.44 14.864 63.268 29.243 50.033 38.865c-1.078.787-2.64.761-3.7-.058-2.597-2.03-4.77-3.74-6.312-4.982-4.734-3.827-11.303-3.827-16.048.005a485.657 485.657 0 01-6.306 4.977c-1.053.825-2.617.85-3.698.058C.78 29.276-21.418 14.88-33.474 7.152c-.671-.433-1.103-1.099-1.188-1.836-.08-.737.191-1.468.756-2.011C-31.73 1.205-28.664 0-25.5 0h115c3.164 0 6.227 1.205 8.409 3.304.561.541.836 1.273.755 2.01-.084.736-.517 1.405-1.188 1.838z"/></g></svg>