<svg width="34" height="48" viewBox="0 0 34 48" fill="none" xmlns="http://www.w3.org/2000/svg"><path d="M16.875 0C7.57 0 0 7.57 0 16.875c0 3.144.87 6.212 2.519 8.874l13.395 21.586c.257.414.71.665 1.195.665h.011c.49-.004.944-.263 1.196-.684L31.37 25.521a16.855 16.855 0 002.38-8.646C33.75 7.57 26.18 0 16.875 0zm12.081 24.077L17.088 43.892 4.909 24.267a14.045 14.045 0 01-2.115-7.392c0-7.754 6.327-14.081 14.081-14.081S30.947 9.12 30.947 16.875a14.05 14.05 0 01-1.99 7.202z" fill="#fff"/><path d="M16.875 8.438c-4.652 0-8.438 3.785-8.438 8.437 0 4.623 3.724 8.438 8.438 8.438 4.772 0 8.438-3.866 8.438-8.438 0-4.652-3.786-8.438-8.438-8.438zm0 14.08a5.648 5.648 0 01-5.644-5.643c0-3.102 2.542-5.644 5.644-5.644 3.102 0 5.634 2.542 5.634 5.644 0 3.064-2.467 5.644-5.634 5.644z" fill="#fff"/></svg>