<svg width="17" height="20" viewBox="0 0 17 20" fill="none" xmlns="http://www.w3.org/2000/svg"><path d="M14.73 3.477C13.201 1.267 10.782 0 8.09 0 5.4 0 2.98 1.268 1.453 3.477-.068 5.676-.418 8.46.512 10.92a6.36 6.36 0 001.172 1.935l5.874 6.9a.699.699 0 001.065 0l5.873-6.898c.53-.615.925-1.267 1.171-1.933.932-2.464.581-5.247-.938-7.446zm-.372 6.956c-.19.514-.5 1.023-.922 1.511a.023.023 0 00-.004.004l-5.341 6.274-5.345-6.278a4.972 4.972 0 01-.924-1.515c-.77-2.034-.478-4.336.78-6.156 1.263-1.827 3.263-2.874 5.489-2.874 2.225 0 4.226 1.047 5.488 2.874 1.258 1.82 1.55 4.122.779 6.16z" fill="#DB4F4F"/><path d="M8.09 4.15a3.92 3.92 0 00-3.915 3.915 3.92 3.92 0 003.916 3.916 3.92 3.92 0 003.916-3.916A3.92 3.92 0 008.09 4.15zm0 6.433a2.52 2.52 0 01-2.517-2.518 2.52 2.52 0 012.518-2.517 2.52 2.52 0 012.517 2.517 2.52 2.52 0 01-2.517 2.518z" fill="#DB4F4F"/></svg>