<svg width="40" height="48" viewBox="0 0 40 48" fill="none" xmlns="http://www.w3.org/2000/svg"><path d="M10.623 10.371v0a2.66 2.66 0 01-2.656 2.657 2.66 2.66 0 01-2.657-2.656 2.66 2.66 0 012.657-2.657.252.252 0 110 .503 2.155 2.155 0 00-2.154 2.154c0 1.188.966 2.153 2.154 2.153a2.155 2.155 0 002.153-2.153.252.252 0 01.503 0zm0 8.819v0a2.66 2.66 0 01-2.656 2.656A2.66 2.66 0 015.31 19.19a2.66 2.66 0 012.657-2.657.252.252 0 110 .503 2.155 2.155 0 00-2.154 2.154c0 1.188.966 2.153 2.154 2.153a2.155 2.155 0 002.153-2.153.252.252 0 01.503 0zm2.955 1.352h5.612a.252.252 0 110 .503h-5.612a.252.252 0 110-.503zm0-3.207h5.612a.252.252 0 110 .503h-5.612a.252.252 0 110-.503zm0 12.025h4.009a.252.252 0 010 .503h-4.009a.252.252 0 110-.503zm0-3.207h5.612a.252.252 0 010 .504h-5.612a.252.252 0 110-.504zm0-14.43h12.827a.252.252 0 110 .504H13.578a.252.252 0 110-.504zm0-3.206h9.62a.252.252 0 110 .503h-9.62a.252.252 0 110-.503zm-2.955 19.491v0a2.66 2.66 0 01-2.656 2.657 2.66 2.66 0 01-2.657-2.657 2.66 2.66 0 012.657-2.656.252.252 0 010 .503 2.155 2.155 0 00-2.154 2.153c0 1.188.966 2.154 2.154 2.154a2.155 2.155 0 002.153-2.154.252.252 0 01.503 0z" fill="#fff" stroke="#fff"/><path d="M2.355.5h27.257c1.022 0 1.855.833 1.855 1.855v24.852a.252.252 0 01-.503 0V2.355c0-.746-.606-1.352-1.352-1.352H2.355c-.746 0-1.352.606-1.352 1.352v33.67c0 .746.606 1.352 1.352 1.352h13.628a.252.252 0 010 .503H2.355A1.858 1.858 0 01.5 36.025V2.355C.5 1.333 1.333.5 2.355.5z" fill="#fff" stroke="#fff"/><path d="M35.06 31.424l-.445.338-.286-.48c-.368-.617-.985-1.039-1.68-1.109a2.274 2.274 0 00-1.597.449l-.445.338-.287-.48c-.367-.617-.984-1.039-1.68-1.108a2.276 2.276 0 00-1.257.236l-.726.37V19.59a2.26 2.26 0 00-.743-1.673h0a2.268 2.268 0 00-1.745-.571l10.892 14.077zm0 0a2.273 2.273 0 011.598-.449c1.112.112 2.024 1.133 2.024 2.359v8.303a5.87 5.87 0 01-5.864 5.863H26.04a5.839 5.839 0 01-5.708-4.52l-.486.114.486-.114-1.677-7.129h0a4.23 4.23 0 011.134-3.988l-.353-.353.353.353L22 29.654l.146-.146m12.916 1.916l-12.916-1.916m0 0V29.3m0 .207V29.3m0 0v-9.596c0-1.225.911-2.247 2.024-2.358L22.145 29.3zm0 .918v3.802a.252.252 0 00.503 0V19.705c0-.914.647-1.765 1.571-1.858L22.145 30.22zm0 0l-.854.854m.854-.854l-.854.854m0 0l-1.146 1.146a3.736 3.736 0 00-1 3.517l1.677 7.128a5.342 5.342 0 005.218 4.133h6.778a5.367 5.367 0 005.337-4.86L21.291 31.073zm13.96.846h0a1.744 1.744 0 011.357-.443s0 0 0 0l-.05.497-1.307-.054zm0 0a1.755 1.755 0 00-.577 1.3v1.203a.252.252 0 01-.504 0v-1.89c0-.914-.646-1.765-1.57-1.858a1.755 1.755 0 00-1.934 1.744v1.202a.252.252 0 01-.504 0v-1.89c0-.914-.646-1.765-1.57-1.858a1.756 1.756 0 00-1.934 1.744v1.203a.252.252 0 01-.504 0V19.59c0-.495-.21-.968-.577-1.3l9.674 13.628zM25.578 18.29a1.745 1.745 0 00-1.358-.444l1.357.444z" fill="#fff" stroke="#fff"/></svg>