<svg width="32" height="48" viewBox="0 0 32 48" fill="none" xmlns="http://www.w3.org/2000/svg"><path fill-rule="evenodd" clip-rule="evenodd" d="M31.597 9.39a1.053 1.053 0 00-.016-.152.996.996 0 00-.032-.117l-.01-.028a.998.998 0 00-.047-.107l-.003-.005a.93.93 0 00-.065-.103l-.018-.025a.932.932 0 00-.081-.095L22.84.275a.946.946 0 00-.095-.082L22.72.175a.898.898 0 00-.1-.065l-.01-.003a.985.985 0 00-.25-.09.994.994 0 00-.12-.014L22.21 0H.938A.937.937 0 000 .937v40.128c0 .518.42.937.937.937h14.115v5.06a.938.938 0 001.436.795l3.57-2.24 3.571 2.24a.938.938 0 001.436-.795v-5.06h5.596c.518 0 .938-.42.938-.937V9.42l-.002-.032zM23.116 3.2l5.282 5.283h-5.282V3.2zm-8.527 25.756c-.066-.18-.173-.472-.175-.592.073-.09.327-.251.483-.35.334-.21.712-.45.987-.824.277-.378.39-.815.49-1.2.043-.17.114-.441.174-.544.033-.007.102-.017.232-.017.104 0 .22.006.345.012.142.007.288.014.441.014.338 0 .61-.038.858-.12.431-.144.777-.422 1.082-.667.168-.136.45-.363.548-.376.107.014.389.24.557.376.305.245.65.523 1.083.667.247.082.519.12.857.12.153 0 .3-.007.441-.014.124-.006.24-.012.345-.012.13 0 .2.01.233.017.06.103.13.375.173.543.1.386.213.823.49 1.2.274.375.653.614.988.825.155.099.409.26.482.35-.002.12-.11.413-.175.592-.14.38-.298.81-.298 1.287 0 .477.158.908.297 1.288.066.18.174.472.176.592-.073.09-.327.25-.482.35-.335.21-.713.45-.988.824-.277.378-.39.815-.49 1.2-.043.169-.114.441-.173.544a1.171 1.171 0 01-.233.017c-.104 0-.221-.006-.345-.012-.142-.007-.288-.015-.441-.015-.338 0-.61.039-.857.12-.432.145-.778.423-1.083.668-.166.134-.442.356-.553.376-.11-.02-.386-.242-.552-.376-.305-.245-.65-.523-1.082-.667a2.658 2.658 0 00-.858-.12c-.152 0-.3.007-.441.014-.124.006-.24.012-.345.012-.13 0-.2-.01-.232-.017-.06-.103-.13-.375-.174-.544-.1-.385-.213-.822-.49-1.2-.274-.374-.653-.614-.987-.825-.156-.098-.41-.259-.483-.35.003-.119.11-.412.175-.59.14-.38.298-.811.298-1.288 0-.478-.158-.909-.298-1.288zm8.6 16.41l-2.632-1.651a.94.94 0 00-.997 0l-2.633 1.652V36.93l.292-.011a6.35 6.35 0 01.347-.013c.167 0 .238.015.265.025.112.037.326.21.499.349.438.352.982.79 1.728.79.747 0 1.291-.438 1.729-.79.172-.14.387-.312.498-.35a.927.927 0 01.265-.024c.106 0 .223.006.348.013.095.004.192.008.291.01v8.438zm1.876-5.24v-3.952c.279-.378.395-.826.494-1.207.051-.2.122-.474.186-.561.064-.088.303-.239.477-.349.461-.291 1.035-.654 1.264-1.34.225-.678-.01-1.317-.198-1.831-.086-.234-.183-.498-.183-.643 0-.144.097-.409.183-.642.188-.514.423-1.154.198-1.831-.229-.686-.803-1.049-1.264-1.34-.174-.11-.413-.261-.477-.348-.064-.088-.135-.362-.186-.562-.135-.522-.303-1.171-.877-1.592-.457-.335-.986-.374-1.345-.374-.151 0-.298.007-.44.015-.123.006-.24.012-.346.012a.918.918 0 01-.265-.025c-.112-.037-.326-.21-.499-.349-.438-.352-.982-.79-1.729-.79-.745 0-1.29.438-1.728.79-.173.139-.387.312-.498.35a.92.92 0 01-.266.024c-.105 0-.223-.006-.347-.013a8.753 8.753 0 00-.44-.014c-.357 0-.887.039-1.343.374-.575.42-.743 1.07-.878 1.592-.051.2-.122.474-.186.561-.065.088-.303.239-.477.348-.461.292-1.035.655-1.264 1.34-.225.678.01 1.318.198 1.832.086.233.183.498.183.642 0 .145-.097.41-.183.643-.189.514-.423 1.154-.198 1.831.229.686.803 1.049 1.264 1.34.174.11.412.261.477.349.064.087.135.36.186.56.099.382.216.83.494 1.208v3.952H1.875V1.875h19.366v7.546c0 .518.42.938.937.938h7.546v29.768h-4.66z" fill="#fff"/><path fill-rule="evenodd" clip-rule="evenodd" d="M5.518 10.359h12.079a.938.938 0 000-1.875H5.518a.937.937 0 100 1.875zm20.667 2.857H5.518a.937.937 0 100 1.875h20.667a.937.937 0 100-1.875zm-3.75 4.732H5.518a.938.938 0 000 1.875h16.917a.937.937 0 100-1.875zm3.75 0a.94.94 0 00-.937.938.94.94 0 00.937.937.94.94 0 00.938-.938.94.94 0 00-.938-.937z" fill="#fff"/></svg>