<svg width="25" height="25" viewBox="0 0 25 25" fill="none" xmlns="http://www.w3.org/2000/svg"><path d="M6.452 14.516H8.87v.807H6.45v-.807zm0 3.226h5.645v.806H6.452v-.806zm0-1.613h10.484v.806H6.452v-.806zm6.451 3.226h.807v.806h-.807v-.806zm1.613 0h.807v.806h-.807v-.806zm1.613 0h.806v.806h-.806v-.806zm-2.419-1.613h3.226v.806H13.71v-.806z" fill="#fff"/><path d="M24.397 3.666l.242-.242c.233-.233.361-.543.361-.872A2.555 2.555 0 0022.448 0c-.33 0-.64.128-.872.361l-1.252 1.252H1.21c-.667 0-1.21.543-1.21 1.21V23.79C0 24.457.543 25 1.21 25h20.967c.667 0 1.21-.543 1.21-1.21V7.022l1.21-1.21c.26-.26.403-.606.403-.973 0-.368-.143-.714-.403-.974l-.2-.2zM22.146.932a.423.423 0 01.302-.126c.963 0 1.745.783 1.745 1.746a.424.424 0 01-.125.302l-2.862 2.863-1.922-1.923L22.145.932zM14.553 12.37l-1.923-1.923 6.083-6.083 1.922 1.922-6.082 6.084zm-2.45-1.31l1.837 1.838a4.263 4.263 0 01-2.507.812.143.143 0 01-.143-.143c0-.913.287-1.781.812-2.507zm-1.56 2.827l-.747.747.57.57.747-.747c.1.036.207.06.32.06a5.064 5.064 0 003.608-1.496l.119-.118h3.388v8.065H4.838v-8.065h5.694c-.028.22-.048.44-.048.664 0 .113.023.22.06.32zM9.677 2.419h4.033v2.656l-.404-.403-.806.806-.806-.806-.807.806-.806-.806-.404.403V2.419zM22.581 23.79a.404.404 0 01-.404.404H1.21a.404.404 0 01-.404-.404V2.823c0-.223.181-.404.404-.404h7.66v4.603l1.21-1.21.806.807.806-.807.807.807.806-.807 1.21 1.21V2.419h5.002l-7.54 7.54a5.078 5.078 0 00-1.28 2.138h-5.86a.807.807 0 00-.806.806v8.065c0 .445.362.806.807.806h13.71a.807.807 0 00.806-.806v-8.065a.807.807 0 00-.807-.806h-2.582l3.829-3.829.199.2c.26.26.606.403.974.403s.713-.143.973-.403l.64-.64V23.79zm1.446-18.548L21.37 7.898a.583.583 0 01-.806 0l-.2-.2 3.462-3.462.2.2a.569.569 0 010 .806z" fill="#fff"/></svg>