<svg xmlns="http://www.w3.org/2000/svg"><defs><symbol id="icon-twitter" viewBox="0 0 32 32"><path d="M16 0C7.165 0 0 7.165 0 16s7.165 16 16 16 16-7.165 16-16S24.835 0 16 0zm7.305 12.475c.007.157.011.316.011.475 0 4.853-3.694 10.449-10.449 10.449-2.074 0-4.004-.608-5.629-1.65.287.034.58.051.876.051a7.368 7.368 0 004.561-1.572 3.677 3.677 0 01-3.431-2.551 3.652 3.652 0 001.659-.063 3.673 3.673 0 01-2.946-3.6v-.047a3.643 3.643 0 001.663.459 3.67 3.67 0 01-1.634-3.057c0-.673.182-1.303.497-1.846a10.426 10.426 0 007.57 3.837 3.673 3.673 0 016.259-3.349 7.38 7.38 0 002.332-.891 3.69 3.69 0 01-1.615 2.031 7.344 7.344 0 002.109-.578 7.446 7.446 0 01-1.832 1.902z"/></symbol><symbol id="icon-soundcloud" viewBox="0 0 32 32"><path d="M16 0C7.164 0 0 7.163 0 16s7.164 16 16 16 16-7.163 16-16S24.836 0 16 0zM2.533 20.353c-.009.063-.054.108-.111.108s-.103-.045-.111-.108l-.203-1.517.203-1.543c.008-.064.054-.109.111-.109s.102.044.111.108l.241 1.544-.241 1.517zm1.033.923c-.01.066-.058.112-.116.112s-.107-.047-.116-.112l-.273-2.44.273-2.495c.008-.065.057-.113.116-.113s.106.046.116.113l.31 2.495-.31 2.44zm1.115.413c-.008.079-.067.136-.139.136-.073 0-.132-.057-.139-.137l-.259-2.852.259-2.961c.007-.079.066-.136.139-.136s.131.057.139.136l.294 2.961-.294 2.853zm1.124.09c-.008.091-.078.16-.163.16a.168.168 0 01-.164-.16l-.245-2.943.245-3.042a.167.167 0 01.164-.16c.085 0 .155.069.163.159l.278 3.043-.278 2.943zm1.133.025c-.007.104-.088.184-.187.184s-.18-.079-.187-.184l-.231-2.967.231-2.822c.007-.105.087-.184.187-.184s.18.079.187.183l.262 2.823-.262 2.967zm1.142.001v-.001a.216.216 0 01-.21.208.215.215 0 01-.211-.208l-.216-2.967.216-4.591a.214.214 0 01.211-.208c.112 0 .204.091.21.208l.246 4.591-.246 2.967zm1.134-.003V21.8c-.006.13-.109.232-.234.232s-.229-.101-.233-.231l-.204-2.948.203-5.641c.006-.13.109-.232.234-.232s.229.102.234.232l.229 5.641-.229 2.949zm1.177-.045v-.002c-.006.143-.118.255-.257.255s-.253-.112-.258-.254l-.189-2.918.189-6.112c.005-.143.118-.256.258-.256s.252.112.257.256l.213 6.112-.213 2.919zm1.169-.019a.283.283 0 01-.281.279.282.282 0 01-.281-.278l-.175-2.9.175-6.317c.005-.157.128-.28.282-.28s.277.123.281.28l.197 6.318-.197 2.898zm1.177-.026v-.002c-.005.17-.138.304-.305.304s-.301-.134-.305-.302l-.161-2.872.16-6.156a.305.305 0 01.611 0l.182 6.157-.182 2.873zm1.187-.018v-.002a.329.329 0 01-.658.001l-.147-2.854.147-5.932a.33.33 0 01.658 0l.165 5.932-.165 2.854zm1.211-.299l-.015.28a.366.366 0 01-.106.248.346.346 0 01-.517-.025.357.357 0 01-.082-.21l-.001-.012-.133-2.837.132-6.99.001-.066a.355.355 0 01.353-.351.36.36 0 01.353.351l.148 7.059-.133 2.555zm1.176.241v-.003c-.004.206-.172.375-.377.375s-.374-.169-.377-.373l-.076-1.378-.078-1.416.153-7.659.001-.039a.38.38 0 01.377-.376.385.385 0 01.376.375l.167 7.699-.167 2.794zm10.164.379h-9.473a.4.4 0 01-.369-.392V10.777c.002-.199.07-.302.329-.402a6.03 6.03 0 018.191 5.086 3.42 3.42 0 014.739 3.152 3.403 3.403 0 01-3.417 3.401z"/></symbol><symbol id="icon-instagram" viewBox="0 0 32 32"><path d="M19.063 16a3.063 3.063 0 11-6.126 0 3.063 3.063 0 016.126 0z"/><path d="M16 0C7.165 0 0 7.165 0 16s7.165 16 16 16 16-7.165 16-16S24.835 0 16 0zm9.132 19.788c-.044.978-.2 1.646-.427 2.23a4.697 4.697 0 01-2.687 2.687c-.584.227-1.252.382-2.23.427-.98.045-1.293.055-3.788.055s-2.808-.011-3.788-.055c-.978-.045-1.646-.2-2.23-.427a4.5 4.5 0 01-1.627-1.06 4.513 4.513 0 01-1.06-1.627c-.227-.584-.383-1.252-.427-2.23-.045-.98-.056-1.293-.056-3.788s.011-2.808.055-3.788c.044-.978.2-1.646.427-2.23a4.513 4.513 0 011.06-1.627 4.5 4.5 0 011.627-1.06c.584-.227 1.252-.382 2.23-.427.98-.045 1.293-.055 3.788-.055s2.808.011 3.788.056c.978.044 1.646.2 2.23.427a4.517 4.517 0 011.628 1.06 4.498 4.498 0 011.059 1.627c.227.584.383 1.252.427 2.23.045.98.055 1.293.055 3.788s-.011 2.808-.055 3.788z"/></symbol><symbol id="icon-facebook" viewBox="0 0 33 32"><path d="M16.067 0C7.194 0 0 7.194 0 16.067c0 7.959 5.792 14.549 13.387 15.826V19.419H9.511V14.93h3.876v-3.31c0-3.84 2.345-5.933 5.772-5.933 1.641 0 3.051.122 3.461.176v4.014l-2.376.001c-1.863 0-2.222.885-2.222 2.184v2.865h4.445l-.58 4.489h-3.865v12.583c7.949-.968 14.112-7.726 14.112-15.938 0-8.869-7.193-16.062-16.067-16.062z"/></symbol></defs></svg>